<svg width="25" height="24" viewBox="0 0 25 24" fill="none" xmlns="http://www.w3.org/2000/svg">
<path d="M7.78369 17.6002C9.55101 17.6002 10.9837 16.1675 10.9837 14.4002C10.9837 12.6329 9.55101 11.2002 7.78369 11.2002C6.01638 11.2002 4.58369 12.6329 4.58369 14.4002C4.58369 16.1675 6.01638 17.6002 7.78369 17.6002Z" fill="#495057"/>
<path d="M15.3837 20C16.4883 20 17.3837 19.1046 17.3837 18C17.3837 16.8954 16.4883 16 15.3837 16C14.2791 16 13.3837 16.8954 13.3837 18C13.3837 19.1046 14.2791 20 15.3837 20Z" fill="#495057"/>
<path d="M15.7837 13.6C18.4347 13.6 20.5837 11.451 20.5837 8.8C20.5837 6.14903 18.4347 4 15.7837 4C13.1327 4 10.9837 6.14903 10.9837 8.8C10.9837 11.451 13.1327 13.6 15.7837 13.6Z" fill="#495057"/>
</svg>
