<svg width="137" height="29" viewBox="0 0 137 29" fill="none" xmlns="http://www.w3.org/2000/svg">
<path d="M40.1185 10.9851C40.1185 11.4171 40.2265 11.8011 40.4425 12.1371C40.6705 12.4731 40.9465 12.7671 41.2705 13.0191C41.5945 13.2711 42.0325 13.5771 42.5845 13.9371C43.1845 14.3211 43.6645 14.6571 44.0245 14.9451C44.3845 15.2331 44.6905 15.5871 44.9425 16.0071C45.1945 16.4151 45.3205 16.8891 45.3205 17.4291C45.3205 18.0531 45.1525 18.6111 44.8165 19.1031C44.4805 19.5831 44.0125 19.9611 43.4125 20.2371C42.8245 20.5011 42.1645 20.6331 41.4325 20.6331C40.8925 20.6331 40.3285 20.5611 39.7405 20.4171C39.1525 20.2611 38.7565 20.0931 38.5525 19.9131C38.4925 19.8651 38.4445 19.8231 38.4085 19.7871C38.3845 19.7391 38.3725 19.6671 38.3725 19.5711L38.3185 16.7091V16.6911C38.3185 16.6431 38.3485 16.6191 38.4085 16.6191C38.4685 16.6071 38.5045 16.6251 38.5165 16.6731C38.8765 17.4051 39.1885 17.9991 39.4525 18.4551C39.7285 18.9111 40.0705 19.3131 40.4785 19.6611C40.8985 20.0091 41.3725 20.1831 41.9005 20.1831C42.3805 20.1831 42.7765 20.0571 43.0885 19.8051C43.4005 19.5411 43.5565 19.0971 43.5565 18.4731C43.5565 17.9451 43.4365 17.4831 43.1965 17.0871C42.9685 16.6911 42.6865 16.3551 42.3505 16.0791C42.0145 15.8031 41.5525 15.4731 40.9645 15.0891C40.3885 14.7171 39.9385 14.3991 39.6145 14.1351C39.3025 13.8711 39.0325 13.5531 38.8045 13.1811C38.5765 12.8091 38.4625 12.3711 38.4625 11.8671C38.4625 11.2311 38.6425 10.6971 39.0025 10.2651C39.3745 9.82105 39.8485 9.49705 40.4245 9.29305C41.0005 9.07705 41.6065 8.96905 42.2425 8.96905C42.6625 8.96905 43.0885 9.01105 43.5205 9.09505C43.9525 9.16705 44.3005 9.25705 44.5645 9.36505C44.6725 9.41305 44.7445 9.46705 44.7805 9.52705C44.8165 9.57505 44.8345 9.64105 44.8345 9.72505V12.3711C44.8345 12.4071 44.8045 12.4371 44.7445 12.4611C44.6845 12.4731 44.6485 12.4611 44.6365 12.4251L44.4925 12.0831C44.1925 11.3271 43.8385 10.6851 43.4305 10.1571C43.0345 9.62905 42.4765 9.36505 41.7565 9.36505C41.2765 9.36505 40.8805 9.50305 40.5685 9.77905C40.2685 10.0551 40.1185 10.4571 40.1185 10.9851ZM46.9521 20.4171C46.9161 20.4171 46.8981 20.3811 46.8981 20.3091C46.8981 20.2371 46.9161 20.2011 46.9521 20.2011C47.3241 20.2011 47.5761 20.1171 47.7081 19.9491C47.8401 19.7691 47.9061 19.4391 47.9061 18.9591V15.7371C47.9061 15.3291 47.8641 15.0351 47.7801 14.8551C47.6961 14.6751 47.5581 14.5851 47.3661 14.5851C47.2101 14.5851 46.9881 14.6511 46.7001 14.7831H46.6821C46.6341 14.7831 46.5981 14.7531 46.5741 14.6931C46.5501 14.6211 46.5561 14.5791 46.5921 14.5671L49.3101 13.3071L49.3641 13.2891C49.4241 13.2891 49.4841 13.3191 49.5441 13.3791C49.6041 13.4391 49.6341 13.4931 49.6341 13.5411V13.9371C49.6101 14.4171 49.5981 15.0051 49.5981 15.7011V18.9591C49.5981 19.4391 49.6641 19.7691 49.7961 19.9491C49.9401 20.1171 50.1981 20.2011 50.5701 20.2011C50.6061 20.2011 50.6241 20.2371 50.6241 20.3091C50.6241 20.3811 50.6061 20.4171 50.5701 20.4171C50.2581 20.4171 50.0121 20.4111 49.8321 20.3991L48.7521 20.3811L47.6901 20.3991C47.5101 20.4111 47.2641 20.4171 46.9521 20.4171ZM48.6801 11.5071C48.3321 11.5071 48.0621 11.4111 47.8701 11.2191C47.6781 11.0271 47.5821 10.7571 47.5821 10.4091C47.5821 10.0971 47.6781 9.85105 47.8701 9.67105C48.0741 9.47905 48.3441 9.38305 48.6801 9.38305C49.0161 9.38305 49.2741 9.47305 49.4541 9.65305C49.6341 9.83305 49.7241 10.0851 49.7241 10.4091C49.7241 10.7571 49.6341 11.0271 49.4541 11.2191C49.2741 11.4111 49.0161 11.5071 48.6801 11.5071ZM64.6406 20.2011C64.6886 20.2011 64.7126 20.2371 64.7126 20.3091C64.7126 20.3811 64.6886 20.4171 64.6406 20.4171C64.3286 20.4171 64.0826 20.4111 63.9026 20.3991L62.8226 20.3811L61.7786 20.3991C61.5866 20.4111 61.3346 20.4171 61.0226 20.4171C60.9866 20.4171 60.9686 20.3811 60.9686 20.3091C60.9686 20.2371 60.9866 20.2011 61.0226 20.2011C61.3946 20.2011 61.6466 20.1171 61.7786 19.9491C61.9226 19.7691 61.9946 19.4391 61.9946 18.9591V16.3671C61.9946 15.7191 61.8806 15.2391 61.6526 14.9271C61.4366 14.6151 61.1006 14.4591 60.6446 14.4591C60.3326 14.4591 60.0266 14.5251 59.7266 14.6571C59.4266 14.7891 59.1686 14.9691 58.9526 15.1971V15.3051V18.9591C58.9526 19.4391 59.0186 19.7691 59.1506 19.9491C59.2946 20.1171 59.5526 20.2011 59.9246 20.2011C59.9726 20.2011 59.9966 20.2371 59.9966 20.3091C59.9966 20.3811 59.9726 20.4171 59.9246 20.4171C59.6126 20.4171 59.3666 20.4111 59.1866 20.3991L58.1066 20.3811L57.0626 20.3991C56.8706 20.4111 56.6186 20.4171 56.3066 20.4171C56.2706 20.4171 56.2526 20.3811 56.2526 20.3091C56.2526 20.2371 56.2706 20.2011 56.3066 20.2011C56.6786 20.2011 56.9306 20.1171 57.0626 19.9491C57.2066 19.7691 57.2786 19.4391 57.2786 18.9591V16.3671C57.2786 15.7191 57.1646 15.2391 56.9366 14.9271C56.7206 14.6151 56.3846 14.4591 55.9286 14.4591C55.6406 14.4591 55.3526 14.5191 55.0646 14.6391C54.7886 14.7471 54.5426 14.9031 54.3266 15.1071V18.9591C54.3266 19.4391 54.3926 19.7691 54.5246 19.9491C54.6686 20.1171 54.9266 20.2011 55.2986 20.2011C55.3346 20.2011 55.3526 20.2371 55.3526 20.3091C55.3526 20.3811 55.3346 20.4171 55.2986 20.4171C54.9866 20.4171 54.7406 20.4111 54.5606 20.3991L53.4806 20.3811L52.4186 20.3991C52.2386 20.4111 51.9926 20.4171 51.6806 20.4171C51.6446 20.4171 51.6266 20.3811 51.6266 20.3091C51.6266 20.2371 51.6446 20.2011 51.6806 20.2011C52.0526 20.2011 52.3046 20.1171 52.4366 19.9491C52.5686 19.7691 52.6346 19.4391 52.6346 18.9591V15.5751C52.6346 15.2031 52.5866 14.9331 52.4906 14.7651C52.4066 14.5851 52.2686 14.4951 52.0766 14.4951C51.8726 14.4951 51.5846 14.5791 51.2126 14.7471H51.1766C51.1406 14.7471 51.1106 14.7171 51.0866 14.6571C51.0746 14.5971 51.0806 14.5611 51.1046 14.5491L53.6066 13.3251C53.6786 13.3011 53.7206 13.2891 53.7326 13.2891C53.8646 13.2891 53.9906 13.4211 54.1106 13.6851C54.2306 13.9371 54.3026 14.2791 54.3266 14.7111C55.1426 13.7391 56.0186 13.2531 56.9546 13.2531C57.5186 13.2531 57.9686 13.3911 58.3046 13.6671C58.6406 13.9431 58.8446 14.3391 58.9166 14.8551C59.7446 13.7871 60.6626 13.2531 61.6706 13.2531C62.3186 13.2531 62.8106 13.4391 63.1466 13.8111C63.4946 14.1831 63.6686 14.7471 63.6686 15.5031V18.9591C63.6686 19.4391 63.7346 19.7691 63.8666 19.9491C64.0106 20.1171 64.2686 20.2011 64.6406 20.2011ZM69.6688 20.6511C69.0808 20.6511 68.5648 20.5851 68.1208 20.4531V23.9091C68.1208 24.2691 68.1568 24.5331 68.2288 24.7011C68.3128 24.8691 68.4628 24.9831 68.6788 25.0431C68.9068 25.1151 69.2548 25.1511 69.7228 25.1511C69.7588 25.1511 69.7768 25.1871 69.7768 25.2591C69.7768 25.3311 69.7588 25.3671 69.7228 25.3671C69.2788 25.3671 68.9308 25.3611 68.6788 25.3491L67.2568 25.3311L66.1948 25.3491C66.0148 25.3611 65.7628 25.3671 65.4388 25.3671C65.4028 25.3671 65.3848 25.3311 65.3848 25.2591C65.3848 25.1871 65.4028 25.1511 65.4388 25.1511C65.7268 25.1511 65.9368 25.1151 66.0688 25.0431C66.2128 24.9831 66.3088 24.8691 66.3568 24.7011C66.4168 24.5331 66.4468 24.2691 66.4468 23.9091V15.5751C66.4468 15.1911 66.4048 14.9151 66.3208 14.7471C66.2368 14.5791 66.0868 14.4951 65.8708 14.4951C65.6788 14.4951 65.4028 14.5791 65.0428 14.7471H65.0068C64.9708 14.7471 64.9408 14.7171 64.9168 14.6571C64.8808 14.5971 64.8748 14.5611 64.8988 14.5491L67.4548 13.3071C67.4788 13.2951 67.5088 13.2891 67.5448 13.2891C67.6648 13.2891 67.7728 13.3911 67.8688 13.5951C67.9768 13.7991 68.0488 14.0751 68.0848 14.4231C68.9608 13.6311 69.8608 13.2351 70.7848 13.2351C71.2888 13.2351 71.7568 13.3671 72.1888 13.6311C72.6328 13.8951 72.9868 14.2791 73.2508 14.7831C73.5148 15.2871 73.6468 15.8751 73.6468 16.5471C73.6468 17.5071 73.4488 18.2991 73.0528 18.9231C72.6568 19.5351 72.1528 19.9791 71.5408 20.2551C70.9408 20.5191 70.3168 20.6511 69.6688 20.6511ZM69.5968 14.2431C69.0568 14.2431 68.5648 14.4351 68.1208 14.8191V14.9631V19.3011C68.3848 19.6011 68.6608 19.8291 68.9488 19.9851C69.2368 20.1291 69.5908 20.2011 70.0108 20.2011C71.2228 20.2011 71.8288 19.1691 71.8288 17.1051C71.8288 16.1931 71.6128 15.4911 71.1808 14.9991C70.7608 14.4951 70.2328 14.2431 69.5968 14.2431ZM74.8293 20.4171C74.8053 20.4171 74.7933 20.3811 74.7933 20.3091C74.7933 20.2371 74.8053 20.2011 74.8293 20.2011C75.2013 20.2011 75.4533 20.1171 75.5853 19.9491C75.7293 19.7691 75.8013 19.4391 75.8013 18.9591L75.8193 9.81505C75.8193 9.39505 75.7773 9.09505 75.6933 8.91505C75.6213 8.73505 75.4893 8.64505 75.2973 8.64505C75.1413 8.64505 74.9133 8.71105 74.6133 8.84305H74.5953C74.5593 8.84305 74.5233 8.81305 74.4873 8.75305C74.4633 8.68105 74.4633 8.63905 74.4873 8.62705L77.1333 7.38505L77.2053 7.36705C77.2653 7.36705 77.3313 7.39705 77.4033 7.45705C77.4753 7.50505 77.5113 7.55305 77.5113 7.60105V18.9591C77.5113 19.4391 77.5773 19.7691 77.7093 19.9491C77.8413 20.1171 78.0933 20.2011 78.4653 20.2011C78.5133 20.2011 78.5373 20.2371 78.5373 20.3091C78.5373 20.3811 78.5133 20.4171 78.4653 20.4171C78.1653 20.4171 77.9253 20.4111 77.7453 20.3991L76.6473 20.3811L75.5673 20.3991C75.3873 20.4111 75.1413 20.4171 74.8293 20.4171ZM86.9537 13.4691C86.9777 13.4691 86.9897 13.5051 86.9897 13.5771C86.9897 13.6491 86.9777 13.6851 86.9537 13.6851C86.5697 13.6851 86.2337 13.8531 85.9457 14.1891C85.6697 14.5131 85.4177 14.9871 85.1897 15.6111L83.1917 20.9211C82.5557 22.6011 81.9437 23.7771 81.3557 24.4491C80.7797 25.1331 80.1377 25.4751 79.4297 25.4751C79.0697 25.4751 78.7937 25.3971 78.6017 25.2411C78.4097 25.0971 78.3137 24.8811 78.3137 24.5931C78.3137 24.3171 78.3977 24.1071 78.5657 23.9631C78.7337 23.8191 78.9377 23.7471 79.1777 23.7471C79.3097 23.7471 79.4177 23.7651 79.5017 23.8011C79.5977 23.8371 79.7117 23.8971 79.8437 23.9811C80.0717 24.1371 80.2877 24.2151 80.4917 24.2151C80.7677 24.2151 81.0137 24.1071 81.2297 23.8911C81.4577 23.6871 81.6917 23.3391 81.9317 22.8471C82.1717 22.3671 82.4597 21.6771 82.7957 20.7771L79.9157 14.9631C79.6517 14.4471 79.4417 14.1051 79.2857 13.9371C79.1417 13.7691 78.9617 13.6851 78.7457 13.6851C78.7097 13.6851 78.6917 13.6491 78.6917 13.5771C78.6917 13.5051 78.7097 13.4691 78.7457 13.4691C79.0817 13.4691 79.3397 13.4751 79.5197 13.4871L80.2757 13.5051L81.5177 13.4871C81.7097 13.4751 81.9677 13.4691 82.2917 13.4691C82.3277 13.4691 82.3457 13.5051 82.3457 13.5771C82.3457 13.6491 82.3277 13.6851 82.2917 13.6851C81.9797 13.6851 81.7517 13.7151 81.6077 13.7751C81.4637 13.8231 81.3917 13.9071 81.3917 14.0271C81.3917 14.1231 81.4277 14.2431 81.4997 14.3871L83.6237 18.7251L84.7037 15.5931C84.8117 15.2811 84.8657 14.9991 84.8657 14.7471C84.8657 14.4111 84.7697 14.1531 84.5777 13.9731C84.3857 13.7811 84.1097 13.6851 83.7497 13.6851C83.7257 13.6851 83.7137 13.6491 83.7137 13.5771C83.7137 13.5051 83.7257 13.4691 83.7497 13.4691C84.0737 13.4691 84.3197 13.4751 84.4877 13.4871L85.5677 13.5051L86.2877 13.4871C86.4317 13.4751 86.6537 13.4691 86.9537 13.4691ZM113.02 24.1251C113.056 24.1131 113.08 24.1371 113.092 24.1971C113.116 24.2571 113.116 24.2931 113.092 24.3051C112.396 24.4611 111.664 24.5391 110.896 24.5391C108.808 24.5391 106.66 24.1791 104.452 23.4591C102.256 22.7391 100.192 21.7851 98.2601 20.5971C97.9241 20.6211 97.6721 20.6331 97.5041 20.6331C96.3881 20.6331 95.3921 20.3751 94.5161 19.8591C93.6521 19.3311 92.9801 18.6231 92.5001 17.7351C92.0321 16.8351 91.7981 15.8571 91.7981 14.8011C91.7981 13.5651 92.1101 12.5091 92.7341 11.6331C93.3581 10.7451 94.1561 10.0791 95.1281 9.63505C96.1121 9.19105 97.1141 8.96905 98.1341 8.96905C99.2741 8.96905 100.276 9.23905 101.14 9.77905C102.004 10.3071 102.664 11.0091 103.12 11.8851C103.588 12.7611 103.822 13.6911 103.822 14.6751C103.822 15.8151 103.51 16.8591 102.886 17.8071C102.262 18.7431 101.434 19.4631 100.402 19.9671L100.6 19.9311C102.016 20.9031 103.714 21.8511 105.694 22.7751C107.686 23.7111 109.78 24.1791 111.976 24.1791C112.408 24.1791 112.756 24.1611 113.02 24.1251ZM94.0121 14.1351C94.0121 15.2991 94.1861 16.3431 94.5341 17.2671C94.8941 18.1791 95.3801 18.8931 95.9921 19.4091C96.6161 19.9251 97.3181 20.1831 98.0981 20.1831C98.7701 20.1831 99.3701 19.9911 99.8981 19.6071C100.438 19.2111 100.858 18.6411 101.158 17.8971C101.458 17.1411 101.608 16.2411 101.608 15.1971C101.608 14.0931 101.44 13.1091 101.104 12.2451C100.768 11.3691 100.282 10.6851 99.6461 10.1931C99.0101 9.70105 98.2661 9.45505 97.4141 9.45505C96.3221 9.45505 95.4821 9.86905 94.8941 10.6971C94.3061 11.5131 94.0121 12.6591 94.0121 14.1351ZM113.679 19.2471C113.715 19.2471 113.745 19.2771 113.769 19.3371C113.805 19.3971 113.805 19.4331 113.769 19.4451L111.285 20.6511C111.261 20.6631 111.231 20.6691 111.195 20.6691C111.075 20.6691 110.967 20.5431 110.871 20.2911C110.787 20.0271 110.739 19.6731 110.727 19.2291C109.935 20.1651 109.077 20.6331 108.153 20.6331C107.493 20.6331 106.971 20.4291 106.587 20.0211C106.215 19.6011 106.029 19.0551 106.029 18.3831V15.7371C106.029 14.9571 105.843 14.5671 105.471 14.5671C105.339 14.5671 105.189 14.6091 105.021 14.6931H105.003C104.955 14.6931 104.919 14.6631 104.895 14.6031C104.871 14.5311 104.877 14.4891 104.913 14.4771L107.325 13.3251L107.415 13.3071C107.475 13.3071 107.535 13.3371 107.595 13.3971C107.667 13.4451 107.703 13.4931 107.703 13.5411V17.5191C107.703 18.8151 108.201 19.4631 109.197 19.4631C109.461 19.4631 109.725 19.4091 109.989 19.3011C110.265 19.1811 110.511 19.0191 110.727 18.8151V15.7371C110.727 14.9571 110.541 14.5671 110.169 14.5671C110.037 14.5671 109.881 14.6091 109.701 14.6931H109.683C109.647 14.6931 109.617 14.6631 109.593 14.6031C109.569 14.5311 109.575 14.4891 109.611 14.4771L112.023 13.3251C112.047 13.3131 112.077 13.3071 112.113 13.3071C112.173 13.3071 112.233 13.3371 112.293 13.3971C112.365 13.4451 112.401 13.4931 112.401 13.5411V18.3291C112.401 18.7371 112.437 19.0251 112.509 19.1931C112.593 19.3611 112.725 19.4451 112.905 19.4451C113.073 19.4451 113.319 19.3791 113.643 19.2471H113.679ZM121.327 19.4451C121.375 19.4451 121.405 19.4751 121.417 19.5351C121.441 19.5831 121.429 19.6191 121.381 19.6431L119.527 20.5251C119.479 20.5491 119.419 20.5611 119.347 20.5611C119.167 20.5611 118.987 20.4711 118.807 20.2911C118.639 20.1111 118.519 19.8651 118.447 19.5531L117.619 20.0031C117.307 20.1591 116.983 20.2911 116.647 20.3991C116.311 20.4951 116.011 20.5431 115.747 20.5431C115.363 20.5431 115.057 20.4471 114.829 20.2551C114.613 20.0511 114.505 19.7631 114.505 19.3911C114.505 19.1151 114.571 18.8931 114.703 18.7251C114.847 18.5571 115.045 18.4191 115.297 18.3111C115.561 18.1911 115.975 18.0351 116.539 17.8431L118.375 17.2491V15.8271C118.375 15.1071 118.303 14.5791 118.159 14.2431C118.015 13.8951 117.781 13.7211 117.457 13.7211C117.169 13.7211 116.941 13.8291 116.773 14.0451C116.605 14.2611 116.503 14.6151 116.467 15.1071C116.395 15.7791 116.041 16.1151 115.405 16.1151C114.841 16.1151 114.559 15.8691 114.559 15.3771C114.559 15.0531 114.763 14.7291 115.171 14.4051C115.579 14.0811 116.071 13.8171 116.647 13.6131C117.223 13.4091 117.727 13.3071 118.159 13.3071C118.723 13.3071 119.179 13.4751 119.527 13.8111C119.887 14.1471 120.067 14.6391 120.067 15.2871V18.4731C120.067 18.8211 120.127 19.0911 120.247 19.2831C120.379 19.4751 120.559 19.5711 120.787 19.5711C120.955 19.5711 121.129 19.5291 121.309 19.4451H121.327ZM118.393 19.2651C118.381 19.1811 118.375 19.0551 118.375 18.8871V17.5551L117.385 17.9151C117.061 18.0351 116.827 18.1671 116.683 18.3111C116.551 18.4551 116.485 18.6291 116.485 18.8331C116.485 19.0851 116.557 19.2831 116.701 19.4271C116.845 19.5711 117.025 19.6431 117.241 19.6431C117.505 19.6431 117.811 19.5591 118.159 19.3911L118.393 19.2651ZM130.523 20.2011C130.559 20.2011 130.577 20.2371 130.577 20.3091C130.577 20.3811 130.559 20.4171 130.523 20.4171C130.211 20.4171 129.965 20.4111 129.785 20.3991L128.705 20.3811L127.661 20.3991C127.469 20.4111 127.217 20.4171 126.905 20.4171C126.869 20.4171 126.851 20.3811 126.851 20.3091C126.851 20.2371 126.869 20.2011 126.905 20.2011C127.277 20.2011 127.529 20.1171 127.661 19.9491C127.793 19.7691 127.859 19.4391 127.859 18.9591V16.3671C127.859 15.7191 127.739 15.2391 127.499 14.9271C127.271 14.6151 126.905 14.4591 126.401 14.4591C126.113 14.4591 125.813 14.5191 125.501 14.6391C125.201 14.7591 124.937 14.9211 124.709 15.1251V18.9591C124.709 19.4391 124.775 19.7691 124.907 19.9491C125.051 20.1171 125.309 20.2011 125.681 20.2011C125.717 20.2011 125.735 20.2371 125.735 20.3091C125.735 20.3811 125.717 20.4171 125.681 20.4171C125.369 20.4171 125.123 20.4111 124.943 20.3991L123.863 20.3811L122.801 20.3991C122.621 20.4111 122.375 20.4171 122.063 20.4171C122.027 20.4171 122.009 20.3811 122.009 20.3091C122.009 20.2371 122.027 20.2011 122.063 20.2011C122.435 20.2011 122.687 20.1171 122.819 19.9491C122.951 19.7691 123.017 19.4391 123.017 18.9591V15.5751C123.017 15.2031 122.969 14.9331 122.873 14.7651C122.789 14.5851 122.651 14.4951 122.459 14.4951C122.255 14.4951 121.967 14.5791 121.595 14.7471H121.559C121.523 14.7471 121.493 14.7171 121.469 14.6571C121.457 14.5971 121.463 14.5611 121.487 14.5491L123.989 13.3251C124.061 13.3011 124.103 13.2891 124.115 13.2891C124.247 13.2891 124.373 13.4211 124.493 13.6851C124.613 13.9371 124.685 14.2851 124.709 14.7291C125.537 13.7451 126.449 13.2531 127.445 13.2531C128.093 13.2531 128.603 13.4631 128.975 13.8831C129.359 14.2911 129.551 14.8311 129.551 15.5031V18.9591C129.551 19.4391 129.617 19.7691 129.749 19.9491C129.893 20.1171 130.151 20.2011 130.523 20.2011ZM136.668 19.1571C136.716 19.1571 136.752 19.1811 136.776 19.2291C136.812 19.2771 136.812 19.3131 136.776 19.3371C136.332 19.7811 135.9 20.1111 135.48 20.3271C135.06 20.5311 134.616 20.6331 134.148 20.6331C133.62 20.6331 133.17 20.5071 132.798 20.2551C132.426 20.0031 132.24 19.5771 132.24 18.9771V14.9811C132.24 14.6091 132.174 14.3511 132.042 14.2071C131.91 14.0631 131.67 13.9911 131.322 13.9911C131.31 13.9911 131.292 13.9731 131.268 13.9371C131.256 13.9011 131.25 13.8651 131.25 13.8291C131.25 13.7811 131.256 13.7451 131.268 13.7211C131.28 13.6851 131.298 13.6671 131.322 13.6671C131.934 13.6431 132.426 13.5111 132.798 13.2711C133.182 13.0311 133.476 12.6651 133.68 12.1731C133.704 12.1251 133.752 12.1011 133.824 12.1011C133.908 12.1011 133.95 12.1251 133.95 12.1731V13.6131C134.646 13.6011 135.426 13.5471 136.29 13.4511C136.314 13.4511 136.338 13.4991 136.362 13.5951C136.398 13.6791 136.416 13.7751 136.416 13.8831C136.416 14.0031 136.392 14.1231 136.344 14.2431C136.308 14.3511 136.266 14.3991 136.218 14.3871C135.438 14.2191 134.682 14.1291 133.95 14.1171V18.3831C133.95 18.8391 134.064 19.1751 134.292 19.3911C134.532 19.6071 134.844 19.7151 135.228 19.7151C135.708 19.7151 136.176 19.5351 136.632 19.1751L136.668 19.1571Z" fill="white"/>
<rect x="0.249634" y="0.549316" width="27.7355" height="27.7355" fill="#2637B8"/>
<path d="M8.2801 11.1217C8.2801 11.4369 8.3589 11.7171 8.51649 11.9622C8.68285 12.2074 8.88422 12.4219 9.12061 12.6057C9.35701 12.7896 9.67658 13.0129 10.0793 13.2755C10.5171 13.5557 10.8673 13.8009 11.13 14.011C11.3926 14.2211 11.6159 14.4794 11.7998 14.7858C11.9836 15.0835 12.0755 15.4294 12.0755 15.8233C12.0755 16.2786 11.953 16.6857 11.7078 17.0447C11.4627 17.3949 11.1212 17.6707 10.6834 17.8721C10.2544 18.0647 9.77289 18.161 9.23881 18.161C8.84482 18.161 8.43332 18.1085 8.00431 18.0034C7.57529 17.8896 7.28637 17.767 7.13753 17.6357C7.09375 17.6007 7.05873 17.57 7.03246 17.5438C7.01495 17.5087 7.0062 17.4562 7.0062 17.3862L6.9668 15.298V15.2849C6.9668 15.2499 6.98869 15.2324 7.03246 15.2324C7.07624 15.2236 7.1025 15.2367 7.11126 15.2718C7.37392 15.8058 7.60156 16.2392 7.79418 16.5719C7.99555 16.9046 8.24508 17.1979 8.54276 17.4518C8.8492 17.7057 9.19503 17.8327 9.58027 17.8327C9.93048 17.8327 10.2194 17.7408 10.4471 17.5569C10.6747 17.3643 10.7885 17.0403 10.7885 16.5851C10.7885 16.1998 10.701 15.8627 10.5258 15.5738C10.3595 15.2849 10.1537 15.0397 9.9086 14.8384C9.66345 14.637 9.32636 14.3962 8.89735 14.116C8.4771 13.8446 8.14877 13.6126 7.91238 13.42C7.68474 13.2274 7.48774 12.9954 7.32139 12.7239C7.15504 12.4525 7.07186 12.133 7.07186 11.7652C7.07186 11.3012 7.20319 10.9116 7.46585 10.5964C7.73727 10.2724 8.0831 10.0361 8.50336 9.88721C8.92362 9.72962 9.36576 9.65082 9.8298 9.65082C10.1362 9.65082 10.447 9.68146 10.7622 9.74275C11.0774 9.79528 11.3313 9.86095 11.524 9.93974C11.6028 9.97477 11.6553 10.0142 11.6816 10.0579C11.7078 10.093 11.721 10.1411 11.721 10.2024V12.133C11.721 12.1592 11.6991 12.1811 11.6553 12.1986C11.6115 12.2074 11.5852 12.1986 11.5765 12.1724L11.4714 11.9228C11.2525 11.3712 10.9943 10.9028 10.6966 10.5176C10.4077 10.1324 10.0005 9.93974 9.47521 9.93974C9.12499 9.93974 8.83606 10.0404 8.60843 10.2418C8.38954 10.4432 8.2801 10.7365 8.2801 11.1217Z" fill="white"/>
<path d="M22.538 20.3542C22.5642 20.3455 22.5817 20.363 22.5905 20.4068C22.608 20.4505 22.608 20.4768 22.5905 20.4856C22.2315 20.5906 21.8769 20.6432 21.5267 20.6432C20.8525 20.6432 20.1565 20.4243 19.4386 19.9865C18.7206 19.5487 18.1034 18.9402 17.5868 18.161H17.5605C16.7463 18.161 16.0196 17.9728 15.3805 17.5963C14.7501 17.2111 14.2598 16.6945 13.9096 16.0466C13.5681 15.39 13.3974 14.6764 13.3974 13.9059C13.3974 13.0041 13.625 12.2336 14.0803 11.5945C14.5356 10.9466 15.1178 10.4607 15.827 10.1367C16.5449 9.81279 17.276 9.65082 18.0202 9.65082C18.8519 9.65082 19.583 9.84781 20.2134 10.2418C20.8438 10.627 21.3253 11.1392 21.658 11.7784C21.9995 12.4175 22.1702 13.096 22.1702 13.814C22.1702 14.7333 21.8944 15.5607 21.3428 16.2961C20.8 17.0316 20.0908 17.5569 19.2153 17.8721C19.5568 18.6075 19.9945 19.2073 20.5286 19.6713C21.0714 20.1441 21.588 20.3805 22.0783 20.3805C22.2271 20.3805 22.3804 20.3717 22.538 20.3542ZM15.0127 13.42C15.0127 14.2693 15.1397 15.031 15.3936 15.7051C15.6562 16.3706 16.0108 16.8915 16.4574 17.268C16.9126 17.6445 17.4248 17.8327 17.9939 17.8327C18.4842 17.8327 18.922 17.6926 19.3072 17.4124C19.7012 17.1235 20.0077 16.7076 20.2265 16.1648C20.4454 15.6132 20.5549 14.9566 20.5549 14.1948C20.5549 13.3894 20.4323 12.6714 20.1871 12.041C19.942 11.4019 19.5874 10.9028 19.1234 10.5439C18.6593 10.1849 18.1165 10.0054 17.4949 10.0054C16.6981 10.0054 16.0853 10.3075 15.6562 10.9116C15.2272 11.507 15.0127 12.3431 15.0127 13.42Z" fill="white"/>
</svg>
