<svg width="311" height="311" viewBox="0 0 311 311" fill="none" xmlns="http://www.w3.org/2000/svg">
<path d="M300.665 120.4C297.311 79.0443 295.634 58.3666 287.827 44.9885C265.476 6.68291 200.49 -2.42772 159.447 1.06598C104.5 5.74196 41.6409 37.3292 13.9714 98.3162C-11.1598 153.709 0.428307 216.411 38.2955 257.428C107.712 332.618 250.903 319.193 285.882 269.855C299.841 250.165 300.848 218.715 302.327 172.516C303.037 150.278 301.65 132.556 300.665 120.4Z" fill="#F4F7FA"/>
<path d="M274.335 25.68C270.782 22.7409 265.394 21.1402 260.838 20.817C228.548 18.5288 223.836 86.0238 228.785 101.108C233.734 116.192 230.527 121.145 205.096 129.036C179.665 136.928 191.865 152.123 194.965 161.009C198.065 169.895 204.203 177.401 185.664 186.231C167.125 195.06 173.568 200.531 173.568 200.531C173.568 200.531 207.756 235.502 205.868 224.306C203.979 213.11 207.401 196.204 238.054 194.919C251.257 194.365 271.475 188.067 275.952 173.93C276.995 170.638 277.72 165.61 276.927 162.202C275.827 157.475 272.725 153.751 271.003 149.302C266.989 138.935 277.057 131.343 282.851 124.414C285.876 120.796 288.9 117.086 291.215 112.962C296.025 104.398 294.224 95.2142 288.987 87.3201C286.475 83.5353 282.986 79.5191 281.89 75.0036C280.713 70.1539 281.74 63.5273 282.018 58.5381C282.238 54.6248 282.611 50.7271 282.39 46.8038C281.983 39.5087 280.274 30.594 274.335 25.68Z" fill="url(#paint0_linear_42_91)"/>
<g opacity="0.8">
<g opacity="0.8">
<path opacity="0.8" d="M170.879 220.159C170.658 220.239 170.407 220.145 170.295 219.931C170.173 219.698 170.263 219.409 170.496 219.287C170.64 219.212 185.033 211.641 201.089 199.172C215.884 187.682 235.159 169.566 242.962 148.505C249.48 130.916 255.423 101.837 259.27 68.727C262.72 39.0361 263.264 17.0776 261.799 13.0016C261.709 12.7536 261.838 12.4802 262.086 12.3905C262.334 12.3008 262.608 12.4304 262.697 12.6783C264.412 17.4473 263.324 42.1146 260.22 68.8377C256.365 102.021 250.402 131.18 243.858 148.837C235.974 170.114 216.561 188.37 201.663 199.937C185.54 212.455 171.084 220.058 170.94 220.133C170.919 220.143 170.899 220.152 170.879 220.159Z" fill="white"/>
</g>
<g opacity="0.8">
<path opacity="0.8" d="M259.218 74.4825C258.971 74.5711 258.72 74.5025 258.629 74.2556C258.51 73.929 246.472 41.5437 230.95 34.2319C230.71 34.1201 230.614 33.85 230.726 33.6109C230.839 33.3718 231.126 33.2777 231.364 33.3895C247.241 40.8684 259.029 72.5741 259.524 73.9235C259.614 74.1715 259.468 74.3929 259.22 74.4814C259.219 74.4825 259.218 74.4825 259.218 74.4825Z" fill="white"/>
</g>
<g opacity="0.8">
<path opacity="0.8" d="M253.347 112.039C253.163 112.106 252.949 112.054 252.817 111.893C252.65 111.689 252.678 111.388 252.882 111.221C252.971 111.148 261.833 103.878 272.768 97.7778C287.543 89.535 298.867 87.2336 306.423 90.9387C306.66 91.0549 306.758 91.3405 306.641 91.5774C306.525 91.8143 306.24 91.9118 306.003 91.7955C288.616 83.2716 253.837 111.67 253.489 111.957C253.446 111.994 253.397 112.022 253.347 112.039Z" fill="white"/>
</g>
<g opacity="0.8">
<path opacity="0.8" d="M214.762 188.807C214.714 188.825 214.663 188.834 214.609 188.835C214.345 188.839 214.128 188.629 214.124 188.364C214.121 188.226 213.876 174.331 210.968 159.69C208.301 146.266 202.795 129.452 191.707 125.577C191.458 125.49 191.326 125.218 191.414 124.97C191.5 124.721 191.773 124.589 192.021 124.676C201.267 127.907 207.957 139.629 211.906 159.517C214.83 174.241 215.076 188.21 215.078 188.35C215.082 188.56 214.949 188.74 214.762 188.807Z" fill="white"/>
</g>
<g opacity="0.8">
<path opacity="0.8" d="M234.493 166.358C234.299 166.428 234.075 166.366 233.947 166.192C233.79 165.979 233.835 165.68 234.047 165.524C235.584 164.388 271.854 137.723 285.998 140.269C286.258 140.316 286.43 140.565 286.383 140.824C286.337 141.084 286.089 141.257 285.829 141.209C272.085 138.735 234.988 166.016 234.615 166.292C234.577 166.321 234.535 166.342 234.493 166.358Z" fill="white"/>
</g>
</g>
<path d="M302.675 125.093C300.327 121.125 295.797 117.795 291.62 115.95C262.008 102.871 234.736 164.79 234.288 180.659C233.841 196.528 229.148 200.103 202.547 198.924C175.946 197.745 182.285 216.172 182.195 225.583C182.105 234.994 185.341 244.134 164.908 246.17C144.475 248.206 148.686 255.533 148.686 255.533C148.686 255.533 169.025 300.01 171.037 288.835C173.048 277.66 181.988 262.909 211.267 272.073C223.878 276.019 245.035 276.935 254.032 265.146C256.127 262.401 258.511 257.915 258.917 254.44C259.48 249.621 257.822 245.066 257.706 240.297C257.436 229.183 269.48 225.446 277.277 220.886C281.347 218.506 285.447 216.037 289.023 212.94C296.447 206.509 297.86 197.258 295.603 188.058C294.52 183.646 292.595 178.686 293.092 174.066C293.626 169.105 296.834 163.216 298.785 158.615C300.314 155.007 301.985 151.465 303.105 147.699C305.192 140.693 306.601 131.726 302.675 125.093Z" fill="url(#paint1_linear_42_91)"/>
<g opacity="0.8">
<g opacity="0.8">
<path opacity="0.8" d="M139.514 273.092C139.28 273.092 139.075 272.918 139.042 272.679C139.006 272.418 139.189 272.177 139.45 272.141C139.611 272.119 155.716 269.865 175.045 263.564C192.854 257.759 217.122 247.232 231.591 230.055C243.677 215.708 259.109 190.357 273.932 160.501C287.224 133.729 295.167 113.25 295.167 108.918C295.167 108.655 295.38 108.441 295.644 108.441C295.907 108.441 296.121 108.655 296.121 108.918C296.121 113.986 286.75 136.83 274.787 160.926C259.931 190.847 244.453 216.269 232.321 230.671C217.703 248.024 193.257 258.633 175.324 264.477C155.917 270.802 139.74 273.064 139.579 273.087C139.559 273.091 139.536 273.092 139.514 273.092Z" fill="white"/>
</g>
<g opacity="0.8">
<path opacity="0.8" d="M271.937 165.999C271.674 165.999 271.461 165.799 271.46 165.537C271.457 165.189 271.089 130.617 258.956 118.484C258.769 118.298 258.769 117.998 258.956 117.812C259.142 117.626 259.444 117.627 259.631 117.813C272.042 130.224 272.405 164.093 272.415 165.53C272.417 165.794 272.205 165.999 271.94 165.999C271.938 165.999 271.937 165.999 271.937 165.999Z" fill="white"/>
</g>
<g opacity="0.8">
<path opacity="0.8" d="M253.704 199.256C253.508 199.256 253.324 199.134 253.255 198.94C253.166 198.692 253.294 198.418 253.543 198.328C253.651 198.29 264.451 194.447 276.806 192.407C293.499 189.65 304.933 191.317 310.791 197.36C310.975 197.549 310.969 197.851 310.78 198.035C310.591 198.219 310.288 198.213 310.105 198.024C296.628 184.12 254.292 199.075 253.866 199.227C253.811 199.247 253.757 199.256 253.704 199.256Z" fill="white"/>
</g>
<g opacity="0.8">
<path opacity="0.8" d="M191.419 258.439C191.368 258.439 191.316 258.43 191.264 258.413C191.015 258.328 190.881 258.057 190.967 257.807C191.011 257.675 195.483 244.517 197.7 229.755C199.732 216.221 200.24 198.536 191.118 191.138C190.913 190.972 190.882 190.67 191.048 190.466C191.214 190.261 191.515 190.229 191.72 190.396C199.327 196.564 201.656 209.859 198.642 229.909C196.411 244.754 191.916 257.983 191.87 258.116C191.803 258.314 191.617 258.439 191.419 258.439Z" fill="white"/>
</g>
<g opacity="0.8">
<path opacity="0.8" d="M217.58 243.99C217.374 243.99 217.185 243.856 217.123 243.65C217.047 243.398 217.191 243.131 217.443 243.056C219.274 242.507 262.427 229.688 274.875 236.87C275.103 237.002 275.182 237.294 275.05 237.522C274.919 237.75 274.626 237.829 274.398 237.697C262.302 230.718 218.161 243.838 217.718 243.97C217.672 243.984 217.626 243.99 217.58 243.99Z" fill="white"/>
</g>
</g>
<path d="M203.411 13.5474L203.07 15.9895C201.938 16.0415 200.824 16.1876 199.74 16.4312L198.817 14.153C198.566 13.5319 197.854 13.2364 197.229 13.4943L193.313 15.1072C192.687 15.3651 192.381 16.0803 192.631 16.7024L193.559 19.0094C192.61 19.6138 191.714 20.2979 190.879 21.0551L188.913 19.5297C188.381 19.1179 187.611 19.2197 187.191 19.7577L184.561 23.123C184.139 23.6621 184.229 24.4348 184.76 24.8477L186.734 26.382C186.208 27.3695 185.767 28.4123 185.41 29.5005L182.905 29.1717C182.232 29.0831 181.606 29.5602 181.506 30.2377L180.876 34.482C180.775 35.1617 181.24 35.786 181.914 35.8746L184.427 36.2045C184.457 37.3502 184.582 38.4771 184.805 39.5742L182.447 40.5572C181.811 40.8218 181.499 41.5535 181.749 42.19L183.32 46.1819C183.572 46.8217 184.292 47.1239 184.93 46.8572L187.289 45.8697C187.882 46.835 188.559 47.745 189.309 48.5907L187.737 50.632C187.312 51.1844 187.403 51.9748 187.941 52.3977L191.311 55.0412C191.85 55.4641 192.632 55.3578 193.056 54.8032L194.609 52.7752C195.601 53.3032 196.651 53.7427 197.746 54.0936L197.392 56.6242C197.296 57.3172 197.769 57.9515 198.449 58.0401L202.703 58.598C203.384 58.6877 204.011 58.1973 204.106 57.5043L204.45 54.9925C205.606 54.9427 206.743 54.7933 207.849 54.5442L208.782 56.8645C209.041 57.5087 209.767 57.8132 210.402 57.5442L214.369 55.8626C215.004 55.5936 215.306 54.8552 215.046 54.2132L214.113 51.9095C215.081 51.2841 215.993 50.5745 216.839 49.7896L218.779 51.2973C219.321 51.7191 220.098 51.6128 220.514 51.0604L223.113 47.6155C223.528 47.0653 223.425 46.2804 222.883 45.8608L220.962 44.3708C221.485 43.3557 221.92 42.283 222.266 41.1661L224.668 41.4815C225.342 41.5701 225.96 41.0886 226.047 40.4066L226.593 36.1513C226.68 35.4727 226.206 34.8506 225.533 34.762L223.137 34.4477C223.087 33.2875 222.941 32.1495 222.695 31.0436L224.917 30.1137C225.541 29.8525 225.837 29.1307 225.578 28.5019L223.955 24.5787C223.696 23.9522 222.981 23.6555 222.357 23.9156L220.121 24.8477C219.513 23.8924 218.824 22.9913 218.059 22.1577L219.536 20.2304C219.947 19.6935 219.846 18.9264 219.312 18.5157L215.975 15.9507C215.441 15.5411 214.676 15.6419 214.264 16.1766L212.779 18.1061C211.793 17.5946 210.753 17.1696 209.667 16.833L209.998 14.4098C210.089 13.7434 209.623 13.1312 208.955 13.0438L204.785 12.4969C204.121 12.4117 203.504 12.8799 203.411 13.5474ZM188.709 33.3285C189.915 24.9418 197.612 19.0625 205.909 20.1507C214.206 21.2389 220.033 28.8927 218.918 37.2904C217.797 45.7402 210.083 51.7346 201.695 50.6353C193.308 49.535 187.497 41.766 188.709 33.3285Z" fill="#D8DEE8"/>
<path d="M139.469 12.2233L138.942 15.9992C137.191 16.079 135.469 16.3048 133.793 16.6812L132.366 13.1587C131.976 12.1978 130.877 11.7417 129.911 12.1402L123.857 14.6343C122.888 15.0339 122.415 16.1376 122.803 17.1018L124.237 20.6686C122.771 21.6029 121.383 22.6601 120.094 23.8324L117.05 21.4734C116.229 20.8368 115.037 20.9951 114.388 21.8254L110.321 27.0283C109.669 27.8619 109.808 29.0563 110.629 29.6951L113.681 32.0685C112.868 33.5951 112.184 35.208 111.633 36.8895L107.76 36.3814C106.72 36.2452 105.751 36.9825 105.595 38.0297L104.622 44.5931C104.466 45.6448 105.186 46.609 106.229 46.7451L110.113 47.2544C110.16 49.0256 110.352 50.7691 110.698 52.465L107.052 53.9849C106.069 54.3945 105.587 55.5248 105.974 56.51L108.403 62.6815C108.791 63.6701 109.906 64.1384 110.891 63.7255L114.539 62.1989C115.455 63.6911 116.502 65.0981 117.663 66.4055L115.233 69.5616C114.575 70.4162 114.716 71.6383 115.548 72.2914L120.759 76.3785C121.593 77.0327 122.803 76.8678 123.459 76.011L125.86 72.8759C127.393 73.6929 129.017 74.3726 130.71 74.915L130.163 78.8283C130.014 79.8999 130.744 80.8807 131.797 81.0179L138.375 81.8803C139.427 82.0187 140.398 81.2604 140.545 80.1888L141.076 76.3054C142.865 76.229 144.623 75.9977 146.332 75.6124L147.774 79.2002C148.175 80.1965 149.297 80.667 150.278 80.2508L156.413 77.6516C157.393 77.2364 157.861 76.094 157.458 75.0999L156.015 71.5376C157.513 70.5712 158.923 69.473 160.232 68.2597L163.229 70.5911C164.067 71.2431 165.268 71.0782 165.913 70.2258L169.93 64.9C170.571 64.0498 170.413 62.8354 169.576 62.1867L166.605 59.8842C167.415 58.3133 168.087 56.655 168.62 54.9292L172.335 55.4163C173.378 55.5536 174.334 54.8085 174.469 53.7547L175.312 47.1747C175.447 46.1241 174.712 45.1632 173.673 45.0271L169.969 44.5411C169.892 42.7478 169.667 40.9876 169.286 39.2784L172.722 37.8404C173.688 37.4364 174.145 36.3205 173.742 35.3486L171.233 29.2822C170.832 28.3135 169.726 27.8553 168.762 28.2571L165.307 29.6973C164.366 28.2194 163.3 26.8268 162.119 25.5394L164.402 22.5593C165.037 21.7302 164.882 20.5435 164.055 19.9081L158.894 15.9428C158.07 15.3096 156.886 15.4657 156.25 16.2926L153.951 19.276C152.427 18.4856 150.819 17.828 149.14 17.3066L149.653 13.5594C149.794 12.5288 149.072 11.5834 148.041 11.4484L141.593 10.6026C140.565 10.4676 139.612 11.1926 139.469 12.2233ZM116.736 42.8086C118.599 29.8412 130.501 20.7505 143.329 22.4331C156.157 24.1158 165.167 35.9496 163.444 48.9348C161.71 61.9985 149.785 71.2686 136.816 69.5671C123.847 67.8667 114.861 55.8536 116.736 42.8086Z" fill="#D8DEE8"/>
<path d="M133.299 48.7875L105.097 283.2C104.674 286.714 107.096 289.865 110.49 290.202L227.957 303.098C235.152 303.545 239.092 299.869 239.537 296.132L269.146 46.9123C269.588 43.196 266.058 39.8297 258.831 39.8297L140.296 42.3259C136.864 42.3846 133.72 45.2916 133.299 48.7875Z" fill="url(#paint2_linear_42_91)"/>
<path d="M128.012 48.3848L99.6551 283.969C99.23 287.502 101.661 290.669 105.066 291.008L226.845 303.133C230.663 303.512 234.163 300.75 234.609 296.994L264.384 46.4874C264.828 42.7513 262.024 39.7491 258.163 39.8144L135.034 41.8922C131.591 41.9487 128.435 44.8712 128.012 48.3848Z" fill="url(#paint3_linear_42_91)"/>
<path d="M130.323 61.3786L104.04 279.812C103.642 283.112 105.919 286.066 109.107 286.376L223.636 297.509C227.185 297.854 230.437 295.276 230.854 291.779L258.37 60.369C258.784 56.8908 256.181 54.0757 252.595 54.1145L136.89 55.3466C133.67 55.3798 130.719 58.0953 130.323 61.3786Z" fill="#D8DEE8"/>
<path d="M191.74 48.2219C191.589 49.4761 192.489 50.4802 193.751 50.4636C195.014 50.4481 196.161 49.4164 196.312 48.1599C196.462 46.9035 195.559 45.8994 194.296 45.9182C193.033 45.937 191.889 46.9688 191.74 48.2219Z" fill="url(#paint4_linear_42_91)"/>
<path d="M150.124 208.006C173.57 164.657 208.597 151.68 219.142 107.004C224.842 82.8545 220.959 59.7403 214.418 40.5516L258.165 39.8132C262.025 39.7479 264.83 42.7512 264.386 46.4862L234.611 296.993C234.164 300.75 230.665 303.512 226.847 303.132L131.117 293.6C130.407 254.758 139.672 227.328 150.124 208.006Z" fill="white"/>
<path d="M12.3942 73.2449C12.3942 50.2104 32.4874 31.5408 56.6001 31.543C79.9999 31.5452 98.467 49.2329 98.467 71.0486C98.467 92.8643 79.9999 111.494 56.6001 112.691C32.4863 113.924 12.3942 96.2794 12.3942 73.2449Z" fill="url(#paint5_linear_42_91)"/>
<path d="M14.9934 71.4082C14.9934 48.3737 34.5054 29.7041 57.9196 29.7063C80.642 29.7085 98.5754 47.3962 98.5754 69.2119C98.5754 91.0276 80.642 109.657 57.9196 110.854C34.5043 112.087 14.9934 94.4416 14.9934 71.4082Z" fill="url(#paint6_linear_42_91)"/>
<g opacity="0.5">
<path opacity="0.5" d="M21.6732 71.2321C21.6732 51.8794 38.0657 36.1932 57.7383 36.1965C76.8285 36.1987 91.8959 51.0592 91.8959 69.3878C91.8959 87.7164 76.8296 103.368 57.7383 104.374C38.0657 105.41 21.6732 90.5847 21.6732 71.2321Z" fill="white"/>
</g>
<path opacity="0.5" d="M56.3845 39.1699C75.4747 39.1722 90.5422 54.0326 90.5422 72.3612C90.5422 76.7195 89.682 80.9228 88.1267 84.8172C90.5355 80.1279 91.8971 74.8796 91.8971 69.3878C91.8971 51.0592 76.8308 36.1987 57.7394 36.1965C42.5669 36.1954 29.3537 45.5297 24.0988 58.6764C30.0489 47.1182 42.3831 39.1688 56.3845 39.1699Z" fill="white"/>
<path d="M41.4271 66.4955V83.3861C41.4271 88.2691 45.5352 92.1215 50.5876 91.9897L63.1155 91.6632C68.107 91.5325 72.1409 87.5108 72.1409 82.6787V65.9663L41.4271 66.4955ZM52.9643 83.9573L55.2923 76.9024C54.2949 76.3876 53.6197 75.3736 53.6197 74.1925C53.6197 72.4589 55.0743 71.0253 56.8654 70.9921C58.6543 70.9578 60.1034 72.3327 60.1034 74.0629C60.1034 75.2419 59.4303 76.2814 58.4362 76.8371L60.7554 83.7758L52.9643 83.9573Z" fill="white"/>
<path d="M68.5797 64.5017C67.2502 64.5238 66.1719 63.4954 66.1719 62.2035C66.1719 57.2386 62.0041 53.2534 56.8643 53.3198C51.7067 53.3863 47.4968 57.5054 47.4968 62.5013C47.4968 63.8009 46.4042 64.8725 45.0548 64.8958C43.7042 64.9179 42.6083 63.8818 42.6083 62.5799C42.6083 54.9759 49.0211 48.7169 56.8654 48.6295C64.6675 48.542 70.983 54.5973 70.983 62.1283C70.983 63.4168 69.9081 64.4795 68.5797 64.5017Z" fill="white"/>
<path d="M97.5963 160.841C97.5963 160.841 96.7439 157.646 97.3483 156.829C97.9516 156.012 101.643 152.746 101.289 153.811C100.934 154.876 100.401 155.586 100.401 155.586C100.401 155.586 102.39 156.509 101.111 157.893C99.8335 159.278 99.4062 159.596 99.3354 160.84C99.2656 162.083 98.4487 162.509 97.5963 160.841Z" fill="url(#paint7_linear_42_91)"/>
<path d="M62.1334 298.748C62.1334 298.748 61.6818 301.511 61.7393 302.494C61.7969 303.477 72.7097 303.979 72.8193 303.243C72.9289 302.507 71.016 301.335 69.6688 300.922C68.3216 300.508 64.3784 299.405 64.3784 299.405L62.1334 298.748Z" fill="url(#paint8_linear_42_91)"/>
<path d="M64.782 295.994L64.4344 299.43C64.4344 299.43 63.1669 300.268 62.0499 299.621L61.4908 295.882L64.782 295.994Z" fill="url(#paint9_linear_42_91)"/>
<path d="M42.6625 303.227C42.6625 303.227 42.2108 305.99 42.2684 306.973C42.3259 307.956 53.2388 308.458 53.3484 307.722C53.4591 306.986 51.5451 305.814 50.1978 305.401C48.8506 304.988 44.9075 303.884 44.9075 303.884L42.6625 303.227Z" fill="url(#paint10_linear_42_91)"/>
<path d="M45.312 300.472L44.9644 303.908C44.9644 303.908 43.6969 304.746 42.5799 304.1L42.0209 300.361L45.312 300.472Z" fill="url(#paint11_linear_42_91)"/>
<path d="M62.8023 206.297C64.0632 208.855 65.3252 211.412 66.5861 213.969C67.6001 228.563 68.1049 244.433 67.7805 261.404C67.5392 274.031 66.865 285.992 65.8953 297.219C64.185 297.14 62.4747 297.062 60.7643 296.983C58.2913 292.075 55.3721 284.639 55.1031 275.46C54.8231 265.885 57.7256 264.613 57.5419 255.446C57.3027 243.564 52.3201 240.393 49.6655 226.101C48.6504 220.634 47.9674 213.495 48.7788 204.834C53.4537 205.322 58.1275 205.81 62.8023 206.297Z" fill="url(#paint12_linear_42_91)"/>
<path opacity="0.3" d="M48.7797 204.834C51.3036 205.097 53.8276 205.361 56.3527 205.624C60.8969 213.532 62.1656 221.761 61.3674 225.402C60.2394 230.553 57.2549 232.202 57.4198 237.373C57.5826 242.49 60.5969 243.817 62.5087 249.847C63.8327 254.023 63.4829 257.862 62.7301 265.369C61.2135 280.492 57.5615 285.117 60.6202 290.075C61.4892 291.485 63.0556 293.162 66.1242 294.443C66.0489 295.37 65.9748 296.3 65.8962 297.218C64.1858 297.14 62.4755 297.061 60.7652 296.983C58.2922 292.075 55.373 284.639 55.104 275.46C54.8239 265.885 57.7265 264.613 57.5427 255.446C57.3036 243.564 52.321 240.394 49.6664 226.102C48.6513 220.635 47.9671 213.496 48.7797 204.834Z" fill="url(#paint13_linear_42_91)"/>
<path d="M56.0149 210.901C53.647 223.814 51.5559 237.632 49.9242 252.288C47.9537 269.983 46.9021 286.666 46.4892 302.154C44.6117 302.207 42.7353 302.26 40.8578 302.313C33.4608 287.68 33.0092 277.759 34.0752 271.3C34.4859 268.811 35.6029 263.93 35.8575 256.635C36.0346 251.551 35.7103 247.681 35.3051 243.029C34.4173 232.83 33.3391 230.604 33.1841 222.803C33.038 215.481 33.0081 211.777 35.0981 209.615C40.6043 203.917 54.9289 210.397 56.0149 210.901Z" fill="url(#paint14_linear_42_91)"/>
<path d="M96.6147 160.348C97.8634 160.261 99.111 160.174 100.36 160.087C103.304 171.988 101.192 183.532 94.5457 187.777C84.1609 194.411 64.8603 181.914 60.6781 168.305C58.8427 162.332 59.26 153.713 62.9297 152.038C63.9482 151.573 65.529 151.501 68.9529 153.423C79.1783 159.164 79.4473 170.014 84.6458 170.933C86.955 171.343 90.6878 169.869 96.6147 160.348Z" fill="url(#paint15_linear_42_91)"/>
<path d="M68.0229 216.587C69.8218 213.603 67.5624 210.724 67.0487 205.071C66.4664 198.662 68.9351 197.595 71.376 186.976C73 179.913 74.5575 173.133 72.6977 165.196C71.8066 161.392 70.2944 154.94 64.9543 151.824C62.1989 150.216 58.4362 150.377 51.0249 150.765C41.8589 151.244 37.277 151.483 33.8586 153.283C33.3582 153.547 22.9612 159.202 22.245 168.421C21.5166 177.804 31.7342 179.065 33.0969 191.578C33.7091 197.195 32.6187 205.834 31.9113 211.436C31.2328 216.816 30.7645 218.193 31.8272 219.823C34.3866 223.749 42.2209 222.63 57.8894 220.393C64.0355 219.514 66.6801 218.814 68.0229 216.587Z" fill="url(#paint16_linear_42_91)"/>
<path d="M44.1818 189.564C43.5188 192.003 41.1365 193.824 39.4782 199.756C39.1206 201.037 36.569 210.158 39.8778 212.403C41.7885 213.699 43.5044 211.243 48.1427 210.922C56.1795 210.366 60.0087 217.121 65.2592 215.275C66.1702 214.954 67.3724 214.272 68.5735 212.705C68.8127 214.117 68.7717 215.345 68.0234 216.588C66.6817 218.816 64.0359 219.515 57.8899 220.393C42.2213 222.63 34.3871 223.749 31.8277 219.823C30.7661 218.195 31.2332 216.816 31.9118 211.436C32.6192 205.833 33.7096 197.194 33.0974 191.578C31.7347 179.065 21.516 177.804 22.2455 168.421C22.4403 165.913 23.3624 163.68 24.5968 161.735C37.5587 166.98 46.2641 181.9 44.1818 189.564Z" fill="url(#paint17_linear_42_91)"/>
<path d="M27.8112 208.02L30.4049 209.676C30.8709 209.138 31.9491 208.053 33.6318 207.683C35.5281 207.266 37.7055 207.865 37.7554 208.469C37.7963 208.954 36.4701 209.444 36.2653 209.519C34.6104 210.13 33.3827 209.622 32.7141 210.287C32.4772 210.522 32.1827 210.96 31.5041 211.365C31.3259 211.472 31.1399 211.566 31.0414 211.604C29.9366 212.034 28.0425 210.111 27.8798 209.943L27.8112 208.02Z" fill="url(#paint18_linear_42_91)"/>
<path d="M35.4725 174.006C37.3489 169.513 38.6485 162.633 35.6851 152.416C16.1597 160.11 6.20226 178.349 10.0901 192.806C13.2948 204.725 24.956 210.531 27.5575 211.753C28.163 210.374 28.7685 208.997 29.3729 207.62C26.3586 204.264 22.9612 199.3 23.4416 193.636C24.108 185.782 31.6744 183.102 35.4725 174.006Z" fill="url(#paint19_linear_42_91)"/>
<path d="M50.5441 141.521C50.5441 141.521 50.3902 144.936 49.3297 147.494C48.371 149.806 43.3319 151.259 42.3102 151.775C41.2884 152.291 44.2242 153.8 47.1721 154.095C50.1201 154.392 58.5377 153.722 60.0554 152.605C61.5731 151.489 58.8355 151.573 56.7322 150.8C54.6278 150.027 53.4112 145.913 53.7832 144.045C54.1551 142.176 50.5441 141.521 50.5441 141.521Z" fill="url(#paint20_linear_42_91)"/>
<path d="M55.2066 140.282C56.7365 138.779 56.9501 138.604 57.1162 138.085C57.7848 136.001 56.1675 133.144 54.0465 132.442C53.9358 132.405 52.5133 131.95 51.9708 132.567C51.5092 133.09 52.1878 133.814 51.8657 134.825C51.5635 135.77 50.7443 135.841 49.2244 137.081C47.9723 138.102 47.1952 138.737 47.0159 139.63C46.6462 141.471 48.8746 144.139 50.8472 144.067C51.5568 144.041 51.7505 143.679 55.2066 140.282Z" fill="url(#paint21_linear_42_91)"/>
<path d="M51.0414 144.352C51.0414 144.352 52.6676 146.193 55.1439 145.584C57.3613 145.039 56.7956 139.949 55.1727 139.137C54.6314 138.865 53.6473 138.888 52.9078 139.244C52.4705 139.454 52.3487 139.674 51.6281 140.003C50.9639 140.308 50.7524 140.266 50.5742 140.481C50.3506 140.748 50.2543 141.326 50.955 142.719C50.4502 142.361 49.9067 142.286 49.5735 142.523C49.5204 142.561 49.3853 142.693 49.3266 142.867C49.1152 143.497 49.7705 144.138 51.0414 144.352Z" fill="url(#paint22_linear_42_91)"/>
<path d="M236.493 75.4353L237.065 78.5249L225.284 78.5526L123.041 78.795C120.411 78.8016 117.992 80.9758 117.631 83.6514L93.2237 246.772C92.8606 249.472 97.0628 253.593 99.6775 253.794L145.037 257.28V257.225L212.887 262.43C212.889 262.43 212.89 262.43 212.891 262.43L213.055 262.499C215.952 262.722 218.61 260.62 218.986 257.769C218.986 257.767 218.986 257.781 218.987 257.78L241.844 83.6204C242.216 80.7954 239.407 75.4275 236.493 75.4353Z" fill="url(#paint23_linear_42_91)"/>
<path d="M216.674 254.375C216.3 257.228 213.643 259.36 210.746 259.138L97.252 250.423C94.6383 250.223 92.8195 247.872 93.1826 245.172L115.37 80.3169C115.73 77.6413 118.149 75.4671 120.777 75.4594L234.912 75.145C237.825 75.1372 239.89 77.421 239.521 80.246L216.674 254.375Z" fill="url(#paint24_linear_42_91)"/>
<path d="M218.182 163.714C217.996 165.126 216.677 166.18 215.235 166.127L115.347 162.482C114.029 162.434 113.101 161.348 113.283 159.999L115.246 145.443C115.428 144.095 116.631 143.182 117.951 143.219L217.926 145.995C219.37 146.035 220.392 147.055 220.207 148.466L218.182 163.714Z" fill="white"/>
<path d="M214.314 193.29C214.128 194.706 212.808 195.914 211.366 195.842L111.553 190.911C110.236 190.846 109.319 189.585 109.501 188.234L111.48 173.397C111.662 172.048 112.876 170.891 114.195 170.944L214.068 174.972C215.51 175.031 216.529 176.335 216.343 177.749L214.314 193.29Z" fill="white"/>
<path opacity="0.1" d="M220.215 148.408C219.978 148.331 219.723 148.289 219.452 148.281L119.474 145.506C118.156 145.468 116.951 146.383 116.772 147.728L114.805 162.284C114.8 162.321 114.797 162.357 114.794 162.395C113.78 162.109 113.128 161.148 113.281 159.997L115.248 145.441C115.427 144.096 116.631 143.18 117.95 143.219L217.928 145.994C219.346 146.036 220.363 147.024 220.215 148.408Z" fill="url(#paint25_linear_42_91)"/>
<path opacity="0.1" d="M216.365 177.421C216.125 177.326 215.865 177.268 215.591 177.257L115.719 173.228C114.401 173.174 113.184 174.333 113.005 175.683L111.022 190.521C111.011 190.616 111.004 190.708 111.004 190.803C109.99 190.476 109.345 189.385 109.498 188.234L111.481 173.396C111.66 172.046 112.876 170.887 114.195 170.94L214.067 174.97C215.401 175.028 216.368 176.14 216.365 177.421Z" fill="url(#paint26_linear_42_91)"/>
<path d="M187.769 217.262C188.063 215.029 186.484 212.973 184.241 212.843L132.571 209.876C130.431 209.753 128.455 211.556 128.164 213.73L126.032 229.801C125.741 231.979 127.226 234.062 129.364 234.208L181.007 237.742C183.25 237.896 185.315 236.002 185.611 233.765L187.769 217.262Z" fill="url(#paint27_linear_42_91)"/>
<path d="M191.671 108.983C190.99 114.12 188.351 118.758 184.598 122.168C180.554 125.847 175.227 128.085 169.688 127.978C164.176 127.872 159.537 125.464 156.558 121.703C153.81 118.237 152.464 113.619 153.138 108.568C154.541 98.0588 164.196 89.5637 174.791 89.5892C185.487 89.6124 193.085 98.2946 191.671 108.983Z" fill="url(#paint28_linear_42_91)"/>
<path d="M181.368 103.143C180.757 107.746 176.508 111.435 171.895 111.38C167.301 111.324 164.084 107.575 164.692 103.005C165.301 98.4364 169.506 94.7512 174.102 94.7722C178.719 94.7933 181.979 98.5405 181.368 103.143Z" fill="white"/>
<path d="M184.599 122.168C180.555 125.847 175.228 128.085 169.689 127.978C164.177 127.872 159.537 125.464 156.558 121.703C159.968 116.953 165.592 113.794 171.564 113.871C177.568 113.949 182.408 117.277 184.599 122.168Z" fill="white"/>
<path opacity="0.4" d="M239.52 80.2449L216.674 254.374C216.3 257.226 213.474 259.346 210.578 259.123L142.412 253.889C139.174 250.574 136.507 246.595 134.604 241.821C133.67 239.48 132.986 236.953 132.531 234.297C131.266 226.944 131.756 218.586 133.602 210.382C135.021 204.066 137.246 197.832 140.094 192.206C142.372 187.708 145.051 183.596 148.043 180.14C150.198 177.652 152.528 175.236 154.986 172.866C157.949 170.005 161.098 167.213 164.347 164.447C171.918 157.996 180.025 151.69 187.53 145.03C204.848 129.667 218.898 112.501 215.518 88.0072C215.409 87.2357 214.354 81.3276 213.006 75.2037L234.743 75.1439C237.654 75.1361 239.89 77.421 239.52 80.2449Z" fill="white"/>
<defs>
<linearGradient id="paint0_linear_42_91" x1="208.183" y1="223.951" x2="289.037" y2="5.5806" gradientUnits="userSpaceOnUse">
<stop offset="0.00359712" stop-color="#E38DDD"/>
<stop offset="1" stop-color="#9571F6"/>
</linearGradient>
<linearGradient id="paint1_linear_42_91" x1="148.328" y1="202.393" x2="305.16" y2="202.393" gradientUnits="userSpaceOnUse">
<stop stop-color="#FF9085"/>
<stop offset="1" stop-color="#FB6FBB"/>
</linearGradient>
<linearGradient id="paint2_linear_42_91" x1="188.575" y1="165.42" x2="234.867" y2="170.47" gradientUnits="userSpaceOnUse">
<stop stop-color="#444B8C"/>
<stop offset="0.9964" stop-color="#26264F"/>
</linearGradient>
<linearGradient id="paint3_linear_42_91" x1="147.787" y1="48.7305" x2="262.255" y2="438.429" gradientUnits="userSpaceOnUse">
<stop stop-color="#444B8C"/>
<stop offset="0.9964" stop-color="#26264F"/>
</linearGradient>
<linearGradient id="paint4_linear_42_91" x1="190.68" y1="39.1317" x2="325.212" y2="403.487" gradientUnits="userSpaceOnUse">
<stop stop-color="#FFC444"/>
<stop offset="0.9964" stop-color="#F36F56"/>
</linearGradient>
<linearGradient id="paint5_linear_42_91" x1="-984.68" y1="1052.9" x2="-892.66" y2="966.133" gradientUnits="userSpaceOnUse">
<stop stop-color="#311944"/>
<stop offset="1" stop-color="#893976"/>
</linearGradient>
<linearGradient id="paint6_linear_42_91" x1="28.8169" y1="95.6615" x2="102.556" y2="28.7455" gradientUnits="userSpaceOnUse">
<stop stop-color="#FF9085"/>
<stop offset="1" stop-color="#FB6FBB"/>
</linearGradient>
<linearGradient id="paint7_linear_42_91" x1="103.527" y1="153.847" x2="88.915" y2="168.72" gradientUnits="userSpaceOnUse">
<stop stop-color="#FFC444"/>
<stop offset="0.9964" stop-color="#F36F56"/>
</linearGradient>
<linearGradient id="paint8_linear_42_91" x1="67.3074" y1="295.126" x2="67.4305" y2="262.13" gradientUnits="userSpaceOnUse">
<stop stop-color="#AA80F9"/>
<stop offset="0.9964" stop-color="#6165D7"/>
</linearGradient>
<linearGradient id="paint9_linear_42_91" x1="64.0391" y1="305.73" x2="62.4679" y2="288.679" gradientUnits="userSpaceOnUse">
<stop stop-color="#FFC444"/>
<stop offset="0.9964" stop-color="#F36F56"/>
</linearGradient>
<linearGradient id="paint10_linear_42_91" x1="47.8541" y1="295.054" x2="47.9773" y2="262.058" gradientUnits="userSpaceOnUse">
<stop stop-color="#AA80F9"/>
<stop offset="0.9964" stop-color="#6165D7"/>
</linearGradient>
<linearGradient id="paint11_linear_42_91" x1="44.3235" y1="307.546" x2="42.7524" y2="290.496" gradientUnits="userSpaceOnUse">
<stop stop-color="#FFC444"/>
<stop offset="0.9964" stop-color="#F36F56"/>
</linearGradient>
<linearGradient id="paint12_linear_42_91" x1="63.4425" y1="219.818" x2="51.3481" y2="281.651" gradientUnits="userSpaceOnUse">
<stop stop-color="#311944"/>
<stop offset="1" stop-color="#893976"/>
</linearGradient>
<linearGradient id="paint13_linear_42_91" x1="69.4779" y1="250.054" x2="51.3075" y2="251.51" gradientUnits="userSpaceOnUse">
<stop stop-color="#311944"/>
<stop offset="1" stop-color="#893976"/>
</linearGradient>
<linearGradient id="paint14_linear_42_91" x1="59.4276" y1="253.472" x2="31.8431" y2="255.683" gradientUnits="userSpaceOnUse">
<stop stop-color="#311944"/>
<stop offset="1" stop-color="#893976"/>
</linearGradient>
<linearGradient id="paint15_linear_42_91" x1="81.2161" y1="162.427" x2="60.8079" y2="293.493" gradientUnits="userSpaceOnUse">
<stop stop-color="#AA80F9"/>
<stop offset="0.9964" stop-color="#6165D7"/>
</linearGradient>
<linearGradient id="paint16_linear_42_91" x1="37.8112" y1="306.291" x2="27.9405" y2="438.569" gradientUnits="userSpaceOnUse">
<stop stop-color="#AA80F9"/>
<stop offset="0.9964" stop-color="#6165D7"/>
</linearGradient>
<linearGradient id="paint17_linear_42_91" x1="4.25191" y1="261.189" x2="58.7298" y2="167.873" gradientUnits="userSpaceOnUse">
<stop stop-color="#AA80F9"/>
<stop offset="0.9964" stop-color="#6165D7"/>
</linearGradient>
<linearGradient id="paint18_linear_42_91" x1="23.5643" y1="196.668" x2="35.054" y2="212.189" gradientUnits="userSpaceOnUse">
<stop stop-color="#FFC444"/>
<stop offset="0.9964" stop-color="#F36F56"/>
</linearGradient>
<linearGradient id="paint19_linear_42_91" x1="13.6948" y1="304.492" x2="3.82411" y2="436.769" gradientUnits="userSpaceOnUse">
<stop stop-color="#AA80F9"/>
<stop offset="0.9964" stop-color="#6165D7"/>
</linearGradient>
<linearGradient id="paint20_linear_42_91" x1="56.1925" y1="157.991" x2="45.1315" y2="144.229" gradientUnits="userSpaceOnUse">
<stop stop-color="#FFC444"/>
<stop offset="0.9964" stop-color="#F36F56"/>
</linearGradient>
<linearGradient id="paint21_linear_42_91" x1="47.7817" y1="152.937" x2="53.6443" y2="133.651" gradientUnits="userSpaceOnUse">
<stop stop-color="#444B8C"/>
<stop offset="0.9964" stop-color="#3E4177"/>
</linearGradient>
<linearGradient id="paint22_linear_42_91" x1="62.7331" y1="146.207" x2="46.2431" y2="138.867" gradientUnits="userSpaceOnUse">
<stop stop-color="#FFC444"/>
<stop offset="0.9964" stop-color="#F36F56"/>
</linearGradient>
<linearGradient id="paint23_linear_42_91" x1="93.2021" y1="168.976" x2="241.878" y2="168.976" gradientUnits="userSpaceOnUse">
<stop stop-color="#311944"/>
<stop offset="1" stop-color="#893976"/>
</linearGradient>
<linearGradient id="paint24_linear_42_91" x1="183.592" y1="461.395" x2="165.864" y2="154.323" gradientUnits="userSpaceOnUse">
<stop offset="0.003597" stop-color="#F36F56"/>
<stop offset="1" stop-color="#FFC444"/>
</linearGradient>
<linearGradient id="paint25_linear_42_91" x1="113.258" y1="152.807" x2="220.229" y2="152.807" gradientUnits="userSpaceOnUse">
<stop offset="0.003597" stop-color="#F36F56"/>
<stop offset="1" stop-color="#FFC444"/>
</linearGradient>
<linearGradient id="paint26_linear_42_91" x1="109.477" y1="180.871" x2="216.365" y2="180.871" gradientUnits="userSpaceOnUse">
<stop offset="0.003597" stop-color="#F36F56"/>
<stop offset="1" stop-color="#FFC444"/>
</linearGradient>
<linearGradient id="paint27_linear_42_91" x1="162.015" y1="191.234" x2="138.12" y2="342.758" gradientUnits="userSpaceOnUse">
<stop offset="0.003597" stop-color="#F36F56"/>
<stop offset="1" stop-color="#FFC444"/>
</linearGradient>
<linearGradient id="paint28_linear_42_91" x1="169.874" y1="33.4688" x2="174.977" y2="185.425" gradientUnits="userSpaceOnUse">
<stop offset="0.003597" stop-color="#F36F56"/>
<stop offset="1" stop-color="#FFC444"/>
</linearGradient>
</defs>
</svg>
