<svg width="141" height="28" viewBox="0 0 141 28" fill="none" xmlns="http://www.w3.org/2000/svg">
<path d="M43.6415 10.4354C43.6415 10.8674 43.7495 11.2514 43.9655 11.5874C44.1935 11.9234 44.4695 12.2174 44.7935 12.4694C45.1175 12.7214 45.5555 13.0274 46.1075 13.3874C46.7075 13.7714 47.1875 14.1074 47.5475 14.3954C47.9075 14.6834 48.2135 15.0374 48.4655 15.4574C48.7175 15.8654 48.8435 16.3394 48.8435 16.8794C48.8435 17.5034 48.6755 18.0614 48.3395 18.5534C48.0035 19.0334 47.5355 19.4114 46.9355 19.6874C46.3475 19.9514 45.6875 20.0834 44.9555 20.0834C44.4155 20.0834 43.8515 20.0114 43.2635 19.8674C42.6755 19.7114 42.2795 19.5434 42.0755 19.3634C42.0155 19.3154 41.9675 19.2734 41.9315 19.2374C41.9075 19.1894 41.8955 19.1174 41.8955 19.0214L41.8415 16.1594V16.1414C41.8415 16.0934 41.8715 16.0694 41.9315 16.0694C41.9915 16.0574 42.0275 16.0754 42.0395 16.1234C42.3995 16.8554 42.7115 17.4494 42.9755 17.9054C43.2515 18.3614 43.5935 18.7634 44.0015 19.1114C44.4215 19.4594 44.8955 19.6334 45.4235 19.6334C45.9035 19.6334 46.2995 19.5074 46.6115 19.2554C46.9235 18.9914 47.0795 18.5474 47.0795 17.9234C47.0795 17.3954 46.9595 16.9334 46.7195 16.5374C46.4915 16.1414 46.2095 15.8054 45.8735 15.5294C45.5375 15.2534 45.0755 14.9234 44.4875 14.5394C43.9115 14.1674 43.4615 13.8494 43.1375 13.5854C42.8255 13.3214 42.5555 13.0034 42.3275 12.6314C42.0995 12.2594 41.9855 11.8214 41.9855 11.3174C41.9855 10.6814 42.1655 10.1474 42.5255 9.71543C42.8975 9.27143 43.3715 8.94743 43.9475 8.74343C44.5235 8.52743 45.1295 8.41943 45.7655 8.41943C46.1855 8.41943 46.6115 8.46143 47.0435 8.54543C47.4755 8.61743 47.8235 8.70743 48.0875 8.81543C48.1955 8.86343 48.2675 8.91743 48.3035 8.97743C48.3395 9.02543 48.3575 9.09143 48.3575 9.17543V11.8214C48.3575 11.8574 48.3275 11.8874 48.2675 11.9114C48.2075 11.9234 48.1715 11.9114 48.1595 11.8754L48.0155 11.5334C47.7155 10.7774 47.3615 10.1354 46.9535 9.60743C46.5575 9.07943 45.9995 8.81543 45.2795 8.81543C44.7995 8.81543 44.4035 8.95343 44.0915 9.22943C43.7915 9.50543 43.6415 9.90743 43.6415 10.4354ZM50.4752 19.8674C50.4392 19.8674 50.4212 19.8314 50.4212 19.7594C50.4212 19.6874 50.4392 19.6514 50.4752 19.6514C50.8472 19.6514 51.0992 19.5674 51.2312 19.3994C51.3632 19.2194 51.4292 18.8894 51.4292 18.4094V15.1874C51.4292 14.7794 51.3872 14.4854 51.3032 14.3054C51.2192 14.1254 51.0812 14.0354 50.8892 14.0354C50.7332 14.0354 50.5112 14.1014 50.2232 14.2334H50.2052C50.1572 14.2334 50.1212 14.2034 50.0972 14.1434C50.0732 14.0714 50.0792 14.0294 50.1152 14.0174L52.8332 12.7574L52.8872 12.7394C52.9472 12.7394 53.0072 12.7694 53.0672 12.8294C53.1272 12.8894 53.1572 12.9434 53.1572 12.9914V13.3874C53.1332 13.8674 53.1212 14.4554 53.1212 15.1514V18.4094C53.1212 18.8894 53.1872 19.2194 53.3192 19.3994C53.4632 19.5674 53.7212 19.6514 54.0932 19.6514C54.1292 19.6514 54.1472 19.6874 54.1472 19.7594C54.1472 19.8314 54.1292 19.8674 54.0932 19.8674C53.7812 19.8674 53.5352 19.8614 53.3552 19.8494L52.2752 19.8314L51.2132 19.8494C51.0332 19.8614 50.7872 19.8674 50.4752 19.8674ZM52.2032 10.9574C51.8552 10.9574 51.5852 10.8614 51.3932 10.6694C51.2012 10.4774 51.1052 10.2074 51.1052 9.85943C51.1052 9.54743 51.2012 9.30143 51.3932 9.12143C51.5972 8.92943 51.8672 8.83343 52.2032 8.83343C52.5392 8.83343 52.7972 8.92343 52.9772 9.10343C53.1572 9.28343 53.2472 9.53543 53.2472 9.85943C53.2472 10.2074 53.1572 10.4774 52.9772 10.6694C52.7972 10.8614 52.5392 10.9574 52.2032 10.9574ZM68.1637 19.6514C68.2117 19.6514 68.2357 19.6874 68.2357 19.7594C68.2357 19.8314 68.2117 19.8674 68.1637 19.8674C67.8517 19.8674 67.6057 19.8614 67.4257 19.8494L66.3457 19.8314L65.3017 19.8494C65.1097 19.8614 64.8577 19.8674 64.5457 19.8674C64.5097 19.8674 64.4917 19.8314 64.4917 19.7594C64.4917 19.6874 64.5097 19.6514 64.5457 19.6514C64.9177 19.6514 65.1697 19.5674 65.3017 19.3994C65.4457 19.2194 65.5177 18.8894 65.5177 18.4094V15.8174C65.5177 15.1694 65.4037 14.6894 65.1757 14.3774C64.9597 14.0654 64.6237 13.9094 64.1677 13.9094C63.8557 13.9094 63.5497 13.9754 63.2497 14.1074C62.9497 14.2394 62.6917 14.4194 62.4757 14.6474V14.7554V18.4094C62.4757 18.8894 62.5417 19.2194 62.6737 19.3994C62.8177 19.5674 63.0757 19.6514 63.4477 19.6514C63.4957 19.6514 63.5197 19.6874 63.5197 19.7594C63.5197 19.8314 63.4957 19.8674 63.4477 19.8674C63.1357 19.8674 62.8897 19.8614 62.7097 19.8494L61.6297 19.8314L60.5857 19.8494C60.3937 19.8614 60.1417 19.8674 59.8297 19.8674C59.7937 19.8674 59.7757 19.8314 59.7757 19.7594C59.7757 19.6874 59.7937 19.6514 59.8297 19.6514C60.2017 19.6514 60.4537 19.5674 60.5857 19.3994C60.7297 19.2194 60.8017 18.8894 60.8017 18.4094V15.8174C60.8017 15.1694 60.6877 14.6894 60.4597 14.3774C60.2437 14.0654 59.9077 13.9094 59.4517 13.9094C59.1637 13.9094 58.8757 13.9694 58.5877 14.0894C58.3117 14.1974 58.0657 14.3534 57.8497 14.5574V18.4094C57.8497 18.8894 57.9157 19.2194 58.0477 19.3994C58.1917 19.5674 58.4497 19.6514 58.8217 19.6514C58.8577 19.6514 58.8757 19.6874 58.8757 19.7594C58.8757 19.8314 58.8577 19.8674 58.8217 19.8674C58.5097 19.8674 58.2637 19.8614 58.0837 19.8494L57.0037 19.8314L55.9417 19.8494C55.7617 19.8614 55.5157 19.8674 55.2037 19.8674C55.1677 19.8674 55.1497 19.8314 55.1497 19.7594C55.1497 19.6874 55.1677 19.6514 55.2037 19.6514C55.5757 19.6514 55.8277 19.5674 55.9597 19.3994C56.0917 19.2194 56.1577 18.8894 56.1577 18.4094V15.0254C56.1577 14.6534 56.1097 14.3834 56.0137 14.2154C55.9297 14.0354 55.7917 13.9454 55.5997 13.9454C55.3957 13.9454 55.1077 14.0294 54.7357 14.1974H54.6997C54.6637 14.1974 54.6337 14.1674 54.6097 14.1074C54.5977 14.0474 54.6037 14.0114 54.6277 13.9994L57.1297 12.7754C57.2017 12.7514 57.2437 12.7394 57.2557 12.7394C57.3877 12.7394 57.5137 12.8714 57.6337 13.1354C57.7537 13.3874 57.8257 13.7294 57.8497 14.1614C58.6657 13.1894 59.5417 12.7034 60.4777 12.7034C61.0417 12.7034 61.4917 12.8414 61.8277 13.1174C62.1637 13.3934 62.3677 13.7894 62.4397 14.3054C63.2677 13.2374 64.1857 12.7034 65.1937 12.7034C65.8417 12.7034 66.3337 12.8894 66.6697 13.2614C67.0177 13.6334 67.1917 14.1974 67.1917 14.9534V18.4094C67.1917 18.8894 67.2577 19.2194 67.3897 19.3994C67.5337 19.5674 67.7917 19.6514 68.1637 19.6514ZM73.1919 20.1014C72.6039 20.1014 72.0879 20.0354 71.6439 19.9034V23.3594C71.6439 23.7194 71.6799 23.9834 71.7519 24.1514C71.8359 24.3194 71.9859 24.4334 72.2019 24.4934C72.4299 24.5654 72.7779 24.6014 73.2459 24.6014C73.2819 24.6014 73.2999 24.6374 73.2999 24.7094C73.2999 24.7814 73.2819 24.8174 73.2459 24.8174C72.8019 24.8174 72.4539 24.8114 72.2019 24.7994L70.7799 24.7814L69.7179 24.7994C69.5379 24.8114 69.2859 24.8174 68.9619 24.8174C68.9259 24.8174 68.9079 24.7814 68.9079 24.7094C68.9079 24.6374 68.9259 24.6014 68.9619 24.6014C69.2499 24.6014 69.4599 24.5654 69.5919 24.4934C69.7359 24.4334 69.8319 24.3194 69.8799 24.1514C69.9399 23.9834 69.9699 23.7194 69.9699 23.3594V15.0254C69.9699 14.6414 69.9279 14.3654 69.8439 14.1974C69.7599 14.0294 69.6099 13.9454 69.3939 13.9454C69.2019 13.9454 68.9259 14.0294 68.5659 14.1974H68.5299C68.4939 14.1974 68.4639 14.1674 68.4399 14.1074C68.4039 14.0474 68.3979 14.0114 68.4219 13.9994L70.9779 12.7574C71.0019 12.7454 71.0319 12.7394 71.0679 12.7394C71.1879 12.7394 71.2959 12.8414 71.3919 13.0454C71.4999 13.2494 71.5719 13.5254 71.6079 13.8734C72.4839 13.0814 73.3839 12.6854 74.3079 12.6854C74.8119 12.6854 75.2799 12.8174 75.7119 13.0814C76.1559 13.3454 76.5099 13.7294 76.7739 14.2334C77.0379 14.7374 77.1699 15.3254 77.1699 15.9974C77.1699 16.9574 76.9719 17.7494 76.5759 18.3734C76.1799 18.9854 75.6759 19.4294 75.0639 19.7054C74.4639 19.9694 73.8399 20.1014 73.1919 20.1014ZM73.1199 13.6934C72.5799 13.6934 72.0879 13.8854 71.6439 14.2694V14.4134V18.7514C71.9079 19.0514 72.1839 19.2794 72.4719 19.4354C72.7599 19.5794 73.1139 19.6514 73.5339 19.6514C74.7459 19.6514 75.3519 18.6194 75.3519 16.5554C75.3519 15.6434 75.1359 14.9414 74.7039 14.4494C74.2839 13.9454 73.7559 13.6934 73.1199 13.6934ZM78.3524 19.8674C78.3284 19.8674 78.3164 19.8314 78.3164 19.7594C78.3164 19.6874 78.3284 19.6514 78.3524 19.6514C78.7244 19.6514 78.9764 19.5674 79.1084 19.3994C79.2524 19.2194 79.3244 18.8894 79.3244 18.4094L79.3424 9.26543C79.3424 8.84543 79.3004 8.54543 79.2164 8.36543C79.1444 8.18543 79.0124 8.09543 78.8204 8.09543C78.6644 8.09543 78.4364 8.16143 78.1364 8.29343H78.1184C78.0824 8.29343 78.0464 8.26343 78.0104 8.20343C77.9864 8.13143 77.9864 8.08943 78.0104 8.07743L80.6564 6.83543L80.7284 6.81743C80.7884 6.81743 80.8544 6.84743 80.9264 6.90743C80.9984 6.95543 81.0344 7.00343 81.0344 7.05143V18.4094C81.0344 18.8894 81.1004 19.2194 81.2324 19.3994C81.3644 19.5674 81.6164 19.6514 81.9884 19.6514C82.0364 19.6514 82.0604 19.6874 82.0604 19.7594C82.0604 19.8314 82.0364 19.8674 81.9884 19.8674C81.6884 19.8674 81.4484 19.8614 81.2684 19.8494L80.1704 19.8314L79.0904 19.8494C78.9104 19.8614 78.6644 19.8674 78.3524 19.8674ZM90.4768 12.9194C90.5008 12.9194 90.5128 12.9554 90.5128 13.0274C90.5128 13.0994 90.5008 13.1354 90.4768 13.1354C90.0928 13.1354 89.7568 13.3034 89.4688 13.6394C89.1928 13.9634 88.9408 14.4374 88.7128 15.0614L86.7148 20.3714C86.0788 22.0514 85.4668 23.2274 84.8788 23.8994C84.3028 24.5834 83.6608 24.9254 82.9528 24.9254C82.5928 24.9254 82.3168 24.8474 82.1248 24.6914C81.9328 24.5474 81.8368 24.3314 81.8368 24.0434C81.8368 23.7674 81.9208 23.5574 82.0888 23.4134C82.2568 23.2694 82.4608 23.1974 82.7008 23.1974C82.8328 23.1974 82.9408 23.2154 83.0248 23.2514C83.1208 23.2874 83.2348 23.3474 83.3668 23.4314C83.5948 23.5874 83.8108 23.6654 84.0148 23.6654C84.2908 23.6654 84.5368 23.5574 84.7528 23.3414C84.9808 23.1374 85.2148 22.7894 85.4548 22.2974C85.6948 21.8174 85.9828 21.1274 86.3188 20.2274L83.4388 14.4134C83.1748 13.8974 82.9648 13.5554 82.8088 13.3874C82.6648 13.2194 82.4848 13.1354 82.2688 13.1354C82.2328 13.1354 82.2148 13.0994 82.2148 13.0274C82.2148 12.9554 82.2328 12.9194 82.2688 12.9194C82.6048 12.9194 82.8628 12.9254 83.0428 12.9374L83.7988 12.9554L85.0408 12.9374C85.2328 12.9254 85.4908 12.9194 85.8148 12.9194C85.8508 12.9194 85.8688 12.9554 85.8688 13.0274C85.8688 13.0994 85.8508 13.1354 85.8148 13.1354C85.5028 13.1354 85.2748 13.1654 85.1308 13.2254C84.9868 13.2734 84.9148 13.3574 84.9148 13.4774C84.9148 13.5734 84.9508 13.6934 85.0228 13.8374L87.1468 18.1754L88.2268 15.0434C88.3348 14.7314 88.3888 14.4494 88.3888 14.1974C88.3888 13.8614 88.2928 13.6034 88.1008 13.4234C87.9088 13.2314 87.6328 13.1354 87.2728 13.1354C87.2488 13.1354 87.2368 13.0994 87.2368 13.0274C87.2368 12.9554 87.2488 12.9194 87.2728 12.9194C87.5968 12.9194 87.8428 12.9254 88.0108 12.9374L89.0908 12.9554L89.8108 12.9374C89.9548 12.9254 90.1768 12.9194 90.4768 12.9194ZM116.543 23.5754C116.579 23.5634 116.603 23.5874 116.615 23.6474C116.639 23.7074 116.639 23.7434 116.615 23.7554C115.919 23.9114 115.187 23.9894 114.419 23.9894C112.331 23.9894 110.183 23.6294 107.975 22.9094C105.779 22.1894 103.715 21.2354 101.783 20.0474C101.447 20.0714 101.195 20.0834 101.027 20.0834C99.9112 20.0834 98.9152 19.8254 98.0392 19.3094C97.1752 18.7814 96.5032 18.0734 96.0232 17.1854C95.5552 16.2854 95.3212 15.3074 95.3212 14.2514C95.3212 13.0154 95.6332 11.9594 96.2572 11.0834C96.8812 10.1954 97.6792 9.52943 98.6512 9.08543C99.6352 8.64143 100.637 8.41943 101.657 8.41943C102.797 8.41943 103.799 8.68943 104.663 9.22943C105.527 9.75743 106.187 10.4594 106.643 11.3354C107.111 12.2114 107.345 13.1414 107.345 14.1254C107.345 15.2654 107.033 16.3094 106.409 17.2574C105.785 18.1934 104.957 18.9134 103.925 19.4174L104.123 19.3814C105.539 20.3534 107.237 21.3014 109.217 22.2254C111.209 23.1614 113.303 23.6294 115.499 23.6294C115.931 23.6294 116.279 23.6114 116.543 23.5754ZM97.5352 13.5854C97.5352 14.7494 97.7092 15.7934 98.0572 16.7174C98.4172 17.6294 98.9032 18.3434 99.5152 18.8594C100.139 19.3754 100.841 19.6334 101.621 19.6334C102.293 19.6334 102.893 19.4414 103.421 19.0574C103.961 18.6614 104.381 18.0914 104.681 17.3474C104.981 16.5914 105.131 15.6914 105.131 14.6474C105.131 13.5434 104.963 12.5594 104.627 11.6954C104.291 10.8194 103.805 10.1354 103.169 9.64343C102.533 9.15143 101.789 8.90543 100.937 8.90543C99.8452 8.90543 99.0052 9.31943 98.4172 10.1474C97.8292 10.9634 97.5352 12.1094 97.5352 13.5854ZM117.202 18.6974C117.238 18.6974 117.268 18.7274 117.292 18.7874C117.328 18.8474 117.328 18.8834 117.292 18.8954L114.808 20.1014C114.784 20.1134 114.754 20.1194 114.718 20.1194C114.598 20.1194 114.49 19.9934 114.394 19.7414C114.31 19.4774 114.262 19.1234 114.25 18.6794C113.458 19.6154 112.6 20.0834 111.676 20.0834C111.016 20.0834 110.494 19.8794 110.11 19.4714C109.738 19.0514 109.552 18.5054 109.552 17.8334V15.1874C109.552 14.4074 109.366 14.0174 108.994 14.0174C108.862 14.0174 108.712 14.0594 108.544 14.1434H108.526C108.478 14.1434 108.442 14.1134 108.418 14.0534C108.394 13.9814 108.4 13.9394 108.436 13.9274L110.848 12.7754L110.938 12.7574C110.998 12.7574 111.058 12.7874 111.118 12.8474C111.19 12.8954 111.226 12.9434 111.226 12.9914V16.9694C111.226 18.2654 111.724 18.9134 112.72 18.9134C112.984 18.9134 113.248 18.8594 113.512 18.7514C113.788 18.6314 114.034 18.4694 114.25 18.2654V15.1874C114.25 14.4074 114.064 14.0174 113.692 14.0174C113.56 14.0174 113.404 14.0594 113.224 14.1434H113.206C113.17 14.1434 113.14 14.1134 113.116 14.0534C113.092 13.9814 113.098 13.9394 113.134 13.9274L115.546 12.7754C115.57 12.7634 115.6 12.7574 115.636 12.7574C115.696 12.7574 115.756 12.7874 115.816 12.8474C115.888 12.8954 115.924 12.9434 115.924 12.9914V17.7794C115.924 18.1874 115.96 18.4754 116.032 18.6434C116.116 18.8114 116.248 18.8954 116.428 18.8954C116.596 18.8954 116.842 18.8294 117.166 18.6974H117.202ZM124.85 18.8954C124.898 18.8954 124.928 18.9254 124.94 18.9854C124.964 19.0334 124.952 19.0694 124.904 19.0934L123.05 19.9754C123.002 19.9994 122.942 20.0114 122.87 20.0114C122.69 20.0114 122.51 19.9214 122.33 19.7414C122.162 19.5614 122.042 19.3154 121.97 19.0034L121.142 19.4534C120.83 19.6094 120.506 19.7414 120.17 19.8494C119.834 19.9454 119.534 19.9934 119.27 19.9934C118.886 19.9934 118.58 19.8974 118.352 19.7054C118.136 19.5014 118.028 19.2134 118.028 18.8414C118.028 18.5654 118.094 18.3434 118.226 18.1754C118.37 18.0074 118.568 17.8694 118.82 17.7614C119.084 17.6414 119.498 17.4854 120.062 17.2934L121.898 16.6994V15.2774C121.898 14.5574 121.826 14.0294 121.682 13.6934C121.538 13.3454 121.304 13.1714 120.98 13.1714C120.692 13.1714 120.464 13.2794 120.296 13.4954C120.128 13.7114 120.026 14.0654 119.99 14.5574C119.918 15.2294 119.564 15.5654 118.928 15.5654C118.364 15.5654 118.082 15.3194 118.082 14.8274C118.082 14.5034 118.286 14.1794 118.694 13.8554C119.102 13.5314 119.594 13.2674 120.17 13.0634C120.746 12.8594 121.25 12.7574 121.682 12.7574C122.246 12.7574 122.702 12.9254 123.05 13.2614C123.41 13.5974 123.59 14.0894 123.59 14.7374V17.9234C123.59 18.2714 123.65 18.5414 123.77 18.7334C123.902 18.9254 124.082 19.0214 124.31 19.0214C124.478 19.0214 124.652 18.9794 124.832 18.8954H124.85ZM121.916 18.7154C121.904 18.6314 121.898 18.5054 121.898 18.3374V17.0054L120.908 17.3654C120.584 17.4854 120.35 17.6174 120.206 17.7614C120.074 17.9054 120.008 18.0794 120.008 18.2834C120.008 18.5354 120.08 18.7334 120.224 18.8774C120.368 19.0214 120.548 19.0934 120.764 19.0934C121.028 19.0934 121.334 19.0094 121.682 18.8414L121.916 18.7154ZM134.047 19.6514C134.083 19.6514 134.101 19.6874 134.101 19.7594C134.101 19.8314 134.083 19.8674 134.047 19.8674C133.735 19.8674 133.489 19.8614 133.309 19.8494L132.229 19.8314L131.185 19.8494C130.993 19.8614 130.741 19.8674 130.429 19.8674C130.393 19.8674 130.375 19.8314 130.375 19.7594C130.375 19.6874 130.393 19.6514 130.429 19.6514C130.801 19.6514 131.053 19.5674 131.185 19.3994C131.317 19.2194 131.383 18.8894 131.383 18.4094V15.8174C131.383 15.1694 131.263 14.6894 131.023 14.3774C130.795 14.0654 130.429 13.9094 129.925 13.9094C129.637 13.9094 129.337 13.9694 129.025 14.0894C128.725 14.2094 128.461 14.3714 128.233 14.5754V18.4094C128.233 18.8894 128.299 19.2194 128.431 19.3994C128.575 19.5674 128.833 19.6514 129.205 19.6514C129.241 19.6514 129.259 19.6874 129.259 19.7594C129.259 19.8314 129.241 19.8674 129.205 19.8674C128.893 19.8674 128.647 19.8614 128.467 19.8494L127.387 19.8314L126.325 19.8494C126.145 19.8614 125.899 19.8674 125.587 19.8674C125.551 19.8674 125.533 19.8314 125.533 19.7594C125.533 19.6874 125.551 19.6514 125.587 19.6514C125.959 19.6514 126.211 19.5674 126.343 19.3994C126.475 19.2194 126.541 18.8894 126.541 18.4094V15.0254C126.541 14.6534 126.493 14.3834 126.397 14.2154C126.313 14.0354 126.175 13.9454 125.983 13.9454C125.779 13.9454 125.491 14.0294 125.119 14.1974H125.083C125.047 14.1974 125.017 14.1674 124.993 14.1074C124.981 14.0474 124.987 14.0114 125.011 13.9994L127.513 12.7754C127.585 12.7514 127.627 12.7394 127.639 12.7394C127.771 12.7394 127.897 12.8714 128.017 13.1354C128.137 13.3874 128.209 13.7354 128.233 14.1794C129.061 13.1954 129.973 12.7034 130.969 12.7034C131.617 12.7034 132.127 12.9134 132.499 13.3334C132.883 13.7414 133.075 14.2814 133.075 14.9534V18.4094C133.075 18.8894 133.141 19.2194 133.273 19.3994C133.417 19.5674 133.675 19.6514 134.047 19.6514ZM140.191 18.6074C140.239 18.6074 140.275 18.6314 140.299 18.6794C140.335 18.7274 140.335 18.7634 140.299 18.7874C139.855 19.2314 139.423 19.5614 139.003 19.7774C138.583 19.9814 138.139 20.0834 137.671 20.0834C137.143 20.0834 136.693 19.9574 136.321 19.7054C135.949 19.4534 135.763 19.0274 135.763 18.4274V14.4314C135.763 14.0594 135.697 13.8014 135.565 13.6574C135.433 13.5134 135.193 13.4414 134.845 13.4414C134.833 13.4414 134.815 13.4234 134.791 13.3874C134.779 13.3514 134.773 13.3154 134.773 13.2794C134.773 13.2314 134.779 13.1954 134.791 13.1714C134.803 13.1354 134.821 13.1174 134.845 13.1174C135.457 13.0934 135.949 12.9614 136.321 12.7214C136.705 12.4814 136.999 12.1154 137.203 11.6234C137.227 11.5754 137.275 11.5514 137.347 11.5514C137.431 11.5514 137.473 11.5754 137.473 11.6234V13.0634C138.169 13.0514 138.949 12.9974 139.813 12.9014C139.837 12.9014 139.861 12.9494 139.885 13.0454C139.921 13.1294 139.939 13.2254 139.939 13.3334C139.939 13.4534 139.915 13.5734 139.867 13.6934C139.831 13.8014 139.789 13.8494 139.741 13.8374C138.961 13.6694 138.205 13.5794 137.473 13.5674V17.8334C137.473 18.2894 137.587 18.6254 137.815 18.8414C138.055 19.0574 138.367 19.1654 138.751 19.1654C139.231 19.1654 139.699 18.9854 140.155 18.6254L140.191 18.6074Z" fill="#2637B8"/>
<rect x="0.774048" y="-0.000244141" width="27.7355" height="27.7355" fill="#2637B8"/>
<path d="M8.80458 10.5722C8.80458 10.8874 8.88337 11.1676 9.04097 11.4127C9.20732 11.6579 9.40869 11.8724 9.64509 12.0562C9.88148 12.2401 10.2011 12.4634 10.6038 12.726C11.0416 13.0062 11.3918 13.2514 11.6544 13.4615C11.9171 13.6716 12.1404 13.9299 12.3242 14.2363C12.5081 14.534 12.6 14.8799 12.6 15.2738C12.6 15.7291 12.4774 16.1362 12.2323 16.4952C11.9871 16.8454 11.6457 17.1212 11.2079 17.3226C10.7789 17.5152 10.2974 17.6115 9.76329 17.6115C9.3693 17.6115 8.95779 17.559 8.52878 17.4539C8.09977 17.3401 7.81084 17.2175 7.662 17.0862C7.61822 17.0512 7.5832 17.0205 7.55694 16.9943C7.53943 16.9592 7.53067 16.9067 7.53067 16.8367L7.49127 14.7485V14.7354C7.49127 14.7004 7.51316 14.6829 7.55694 14.6829C7.60071 14.6741 7.62698 14.6872 7.63574 14.7223C7.8984 15.2563 8.12604 15.6897 8.31865 16.0224C8.52003 16.3551 8.76955 16.6484 9.06724 16.9023C9.37367 17.1562 9.71951 17.2832 10.1047 17.2832C10.455 17.2832 10.7439 17.1913 10.9715 17.0074C11.1992 16.8148 11.313 16.4908 11.313 16.0356C11.313 15.6503 11.2254 15.3132 11.0503 15.0243C10.884 14.7354 10.6782 14.4902 10.4331 14.2889C10.1879 14.0875 9.85084 13.8467 9.42183 13.5665C9.00157 13.2951 8.67324 13.0631 8.43685 12.8705C8.20921 12.6779 8.01222 12.4459 7.84586 12.1744C7.67951 11.903 7.59634 11.5835 7.59634 11.2157C7.59634 10.7517 7.72767 10.3621 7.99033 10.0469C8.26174 9.72295 8.60758 9.48655 9.02784 9.33771C9.44809 9.18012 9.89024 9.10132 10.3543 9.10132C10.6607 9.10132 10.9715 9.13196 11.2867 9.19325C11.6019 9.24578 11.8558 9.31145 12.0484 9.39025C12.1272 9.42527 12.1798 9.46467 12.206 9.50844C12.2323 9.54346 12.2454 9.59162 12.2454 9.65291V11.5835C12.2454 11.6097 12.2235 11.6316 12.1798 11.6491C12.136 11.6579 12.1097 11.6491 12.101 11.6229L11.9959 11.3733C11.777 10.8217 11.5187 10.3533 11.2211 9.9681C10.9321 9.58286 10.525 9.39025 9.99968 9.39025C9.64947 9.39025 9.36054 9.49093 9.1329 9.6923C8.91402 9.89368 8.80458 10.187 8.80458 10.5722Z" fill="white"/>
<path d="M23.0624 19.8047C23.0887 19.796 23.1062 19.8135 23.115 19.8573C23.1325 19.901 23.1325 19.9273 23.115 19.9361C22.756 20.0411 22.4014 20.0937 22.0512 20.0937C21.377 20.0937 20.681 19.8748 19.963 19.437C19.2451 18.9992 18.6278 18.3907 18.1113 17.6115H18.085C17.2708 17.6115 16.5441 17.4233 15.9049 17.0468C15.2745 16.6616 14.7842 16.145 14.434 15.4971C14.0926 14.8405 13.9218 14.1269 13.9218 13.3564C13.9218 12.4546 14.1495 11.6841 14.6048 11.045C15.06 10.3971 15.6423 9.91119 16.3514 9.58724C17.0694 9.26329 17.8005 9.10132 18.5447 9.10132C19.3764 9.10132 20.1075 9.29831 20.7379 9.6923C21.3683 10.0775 21.8498 10.5897 22.1825 11.2289C22.524 11.868 22.6947 12.5465 22.6947 13.2645C22.6947 14.1838 22.4189 15.0112 21.8673 15.7466C21.3245 16.4821 20.6153 17.0074 19.7398 17.3226C20.0812 18.058 20.519 18.6578 21.0531 19.1218C21.5959 19.5946 22.1125 19.831 22.6028 19.831C22.7516 19.831 22.9048 19.8222 23.0624 19.8047ZM15.5372 12.8705C15.5372 13.7198 15.6642 14.4815 15.9181 15.1556C16.1807 15.8211 16.5353 16.342 16.9818 16.7185C17.4371 17.095 17.9493 17.2832 18.5184 17.2832C19.0087 17.2832 19.4465 17.1431 19.8317 16.8629C20.2257 16.574 20.5321 16.1581 20.751 15.6153C20.9699 15.0637 21.0793 14.4071 21.0793 13.6453C21.0793 12.8399 20.9568 12.1219 20.7116 11.4915C20.4665 10.8524 20.1119 10.3533 19.6478 9.99436C19.1838 9.6354 18.641 9.45591 18.0193 9.45591C17.2226 9.45591 16.6097 9.75797 16.1807 10.3621C15.7517 10.9575 15.5372 11.7936 15.5372 12.8705Z" fill="white"/>
</svg>
